<svg width="53" height="37" viewBox="0 0 53 37" fill="none" xmlns="http://www.w3.org/2000/svg">
<path d="M37.7054 12.1089H2.49018C1.1115 12.1089 0 13.2204 0 14.5991V34.5098C0 35.8885 1.1115 37 2.49018 37H37.7054C39.0841 37 40.1956 35.8885 40.1956 34.5098V14.5991C40.1956 13.2204 39.0734 12.1089 37.7054 12.1089ZM37.2244 29.9035C37.0214 29.8715 36.8183 29.8501 36.6046 29.8501C34.6594 29.8501 33.0777 31.4318 33.0777 33.3769C33.0777 33.6014 33.0991 33.8151 33.1418 34.0289H7.34229C7.36366 33.8899 7.37435 33.7403 7.37435 33.5907C7.37435 31.6456 5.79261 30.0638 3.84749 30.0638C3.54824 30.0638 3.24899 30.1066 2.97111 30.1707V19.355C3.24899 19.4298 3.53755 19.4619 3.84749 19.4619C5.79261 19.4619 7.37435 17.8801 7.37435 15.935C7.37435 15.6358 7.3316 15.3472 7.26748 15.08H33.1418C33.0991 15.2938 33.0777 15.5075 33.0777 15.7319C33.0777 17.6771 34.6594 19.2588 36.6046 19.2588C36.8183 19.2588 37.0214 19.2374 37.2244 19.2054V29.9035ZM46.1378 9.52253V27.4882C46.1378 27.8195 46.095 28.1401 45.9988 28.45C45.5393 30.0318 43.1667 29.6363 43.1667 27.9905V26.8897V10.634C43.1667 9.75765 42.4506 9.04159 41.5742 9.04159H9.96072H8.91335H8.89197C7.2461 9.04159 6.85066 6.66898 8.43241 6.20942C8.74235 6.12392 9.06297 6.07048 9.39428 6.07048H42.6644C44.5881 6.05979 46.1378 7.60947 46.1378 9.52253ZM52.1228 3.46274V21.4284C52.1228 21.7597 52.08 22.0803 51.9838 22.3902C51.5243 23.972 49.1516 23.5765 49.1516 21.9307V20.8299V4.56355C49.1516 3.68717 48.4356 2.97112 47.5592 2.97112H15.935H14.8876H14.8663C13.2204 2.97112 12.825 0.598498 14.4067 0.138937C14.7166 0.0534376 15.0373 0 15.3686 0H48.6386C50.5731 0 52.1228 1.54968 52.1228 3.46274ZM33.2273 24.5598C33.2273 25.7247 32.2868 26.6652 31.1219 26.6652C29.957 26.6652 29.0165 25.7247 29.0165 24.5598C29.0165 23.3949 29.957 22.4544 31.1219 22.4544C32.2868 22.4544 33.2273 23.3949 33.2273 24.5598ZM11.1577 24.5598C11.1577 25.7247 10.2172 26.6652 9.05228 26.6652C7.88735 26.6652 6.94685 25.7247 6.94685 24.5598C6.94685 23.3949 7.88735 22.4544 9.05228 22.4544C10.2172 22.4544 11.1577 23.3949 11.1577 24.5598ZM23.1597 24.5491C23.1597 26.2377 21.7811 27.6164 20.0924 27.6164C18.4038 27.6164 17.0251 26.2377 17.0251 24.5491C17.0251 22.8605 18.4038 21.4818 20.0924 21.4818C21.7811 21.4818 23.1597 22.8605 23.1597 24.5491ZM20.0924 16.8969C15.8709 16.8969 12.4402 20.3276 12.4402 24.5491C12.4402 28.7707 15.8709 32.2013 20.0924 32.2013C24.314 32.2013 27.7447 28.7707 27.7447 24.5491C27.7447 20.3276 24.3247 16.8969 20.0924 16.8969ZM20.0924 29.6791C17.2603 29.6791 14.9624 27.3813 14.9624 24.5491C14.9624 21.7169 17.2603 19.4191 20.0924 19.4191C22.9246 19.4191 25.2224 21.7169 25.2224 24.5491C25.2224 27.3813 22.9246 29.6791 20.0924 29.6791Z" fill="#F2ECEC"/>
</svg>
