<svg width="33" height="32" viewBox="0 0 33 32" fill="none" xmlns="http://www.w3.org/2000/svg">
<path d="M32 30.4492H1" stroke="#F2ECEC" stroke-width="2" stroke-linecap="round"/>
<path d="M1 13.3997L7.29759 8.36172M32 13.3997L19.4049 3.32364C17.7065 1.96504 15.2935 1.96504 13.5951 3.32364L12.3832 4.29324" stroke="#F2ECEC" stroke-width="2" stroke-linecap="round"/>
<path d="M21.9258 4.875V1.775C21.9258 1.34698 22.2728 1 22.7008 1H26.5758C27.0037 1 27.3508 1.34698 27.3508 1.775V9.525" stroke="#F2ECEC" stroke-width="2" stroke-linecap="round"/>
<path d="M4.09961 30.4492V11.0742" stroke="#F2ECEC" stroke-width="2" stroke-linecap="round"/>
<path d="M28.9004 11.0742V17.2742M28.9004 30.4492V23.4742" stroke="#F2ECEC" stroke-width="2" stroke-linecap="round"/>
<path d="M21.1496 30.4508V22.7008C21.1496 20.5088 21.1496 19.4128 20.4687 18.7317C19.7876 18.0508 18.6916 18.0508 16.4996 18.0508C14.3076 18.0508 13.2116 18.0508 12.5306 18.7317M11.8496 30.4508V22.7008" stroke="#F2ECEC" stroke-width="2" stroke-linecap="round" stroke-linejoin="round"/>
<path d="M19.6004 11.0766C19.6004 12.7887 18.2125 14.1766 16.5004 14.1766C14.7883 14.1766 13.4004 12.7887 13.4004 11.0766C13.4004 9.36448 14.7883 7.97656 16.5004 7.97656C18.2125 7.97656 19.6004 9.36448 19.6004 11.0766Z" stroke="#F2ECEC" stroke-width="2"/>
</svg>
