<svg width="32" height="28" viewBox="0 0 32 28" fill="none" xmlns="http://www.w3.org/2000/svg">
<path fill-rule="evenodd" clip-rule="evenodd" d="M15.3727 22.7415C16.5061 21.6081 16.6078 20.98 15.306 18.9308C15.1586 18.7027 15.2288 18.3974 15.4569 18.2535C15.685 18.1097 15.9868 18.1763 16.1341 18.4044C17.6956 20.8607 17.5131 21.9906 16.0675 23.4362C14.9341 24.5696 14.8323 25.1977 16.1341 27.247C16.278 27.475 16.2113 27.7768 15.9832 27.9242C15.7552 28.068 15.4534 28.0014 15.306 27.7733C13.7445 25.317 13.927 24.1872 15.3727 22.7415ZM7.51265 22.7415C8.64604 21.6081 8.7478 20.98 7.44598 18.9308C7.30211 18.7027 7.36878 18.3974 7.59687 18.2535C7.82495 18.1097 8.12672 18.1763 8.27409 18.4044C9.83557 20.8607 9.65311 21.9906 8.20742 23.4362C7.07403 24.5696 6.97227 25.1977 8.27409 27.247C8.41796 27.475 8.35129 27.7768 8.12321 27.9242C7.89513 28.068 7.59336 28.0014 7.44598 27.7733C5.8845 25.317 6.06697 24.1872 7.51265 22.7415ZM23.1661 27.7733C21.6046 25.317 21.787 24.1872 23.2327 22.7415C24.3661 21.6081 24.4679 20.98 23.1661 18.9308C23.0222 18.7027 23.0889 18.4009 23.3169 18.2535C23.545 18.1097 23.8468 18.1763 23.9942 18.4044C25.5556 20.8607 25.3732 21.9906 23.9275 23.4362C22.7941 24.5696 22.6923 25.1977 23.9942 27.247C24.138 27.475 24.0714 27.7768 23.8433 27.9242C23.6152 28.068 23.3134 28.0014 23.1661 27.7733ZM0 11.7865V3.93353C0 1.76149 1.76149 0 3.93002 0H27.5101C29.6822 0 31.4401 1.76149 31.4401 3.93353V11.7865C31.4401 13.9586 29.6787 15.7201 27.5101 15.7201H3.93002C1.75798 15.7201 0 13.9586 0 11.7865ZM3.92993 1.96477C2.84567 1.96477 1.96492 2.84903 1.96492 3.93329V11.7863C1.96492 12.8741 2.84567 13.7548 3.92993 13.7548H27.51C28.5943 13.7548 29.475 12.8706 29.475 11.7863V3.93329C29.475 2.84552 28.5943 1.96477 27.51 1.96477H3.92993Z" fill="#831D5C"/>
<path d="M11.9049 5.50604C11.9049 4.71854 12.5397 4.07422 13.3435 4.07422H16.2587C17.0591 4.07422 17.6973 4.72536 17.6973 5.50604C17.6973 6.29354 17.0625 6.93786 16.2587 6.93786H13.3435C12.5466 6.93786 11.9049 6.28672 11.9049 5.50604ZM6.10913 5.50604C6.10913 4.71513 6.76461 4.07422 7.55808 4.07422C8.35845 4.07422 9.00703 4.72195 9.00703 5.50604C9.00703 6.29695 8.35156 6.93786 7.55808 6.93786C6.75771 6.93786 6.10913 6.29013 6.10913 5.50604ZM6.59211 9.80149H24.9455V8.84695H6.59211V9.80149ZM6.59211 11.7106H24.9455V10.756H6.59211V11.7106Z" fill="#831D5C"/>
</svg>
