<svg width="22" height="22" viewBox="0 0 22 22" fill="none" xmlns="http://www.w3.org/2000/svg">
<path d="M20.5333 4.73V2.93335C20.5333 1.32 19.2133 0 17.6 0C15.9867 0 14.6667 1.32 14.6667 2.93335V4.7667V6.85609C13.5863 6.22755 12.3333 5.8667 11 5.8667C9.66668 5.8667 8.41367 6.22755 7.33335 6.85609V4.7667V2.93335C7.33335 1.32 6.01335 0 4.4 0C2.78665 0 1.46665 1.32 1.46665 2.93335V4.73L0 21.5967C0 21.7067 0.0366523 21.8167 0.11 21.89C0.183348 21.9633 0.256652 22 0.366652 22H5.5H8.8H13.9333H16.5H21.6333C21.7433 22 21.8167 21.9633 21.89 21.89C21.9633 21.8167 22 21.7067 22 21.5967L20.5333 4.73ZM15.4 2.93335C15.4 1.72335 16.39 0.733348 17.6 0.733348C18.81 0.733348 19.8 1.72335 19.8 2.93335V4.4H15.4V2.93335ZM14.7105 7.73562C14.7336 7.7773 14.7665 7.81541 14.8133 7.84665C16.4633 8.9833 17.49 10.8533 17.6 12.8333H16.8667C16.6866 9.8077 14.2065 7.41924 11.1646 7.33575C11.1596 7.33563 11.1547 7.33532 11.1497 7.3352C11.0999 7.33395 11.05 7.3333 11 7.3333C10.9499 7.3333 10.9 7.33399 10.8503 7.3352C10.8453 7.33532 10.8403 7.33558 10.8353 7.33575C7.8057 7.4189 5.3338 9.7885 5.13588 12.7967H4.40228C4.40434 12.7614 4.40653 12.7262 4.40915 12.6912C4.58266 10.7517 5.56596 8.96242 7.18657 7.80996C7.18932 7.80721 7.19202 7.80407 7.19477 7.80119C8.27234 7.04421 9.58577 6.6 11 6.6C12.373 6.6 13.6512 7.01847 14.7105 7.73562ZM2.2 2.93335C2.2 1.72335 3.19 0.733348 4.4 0.733348C5.61 0.733348 6.6 1.72335 6.6 2.93335V4.4H2.2V2.93335ZM2.16335 5.13335H6.6V7.33335C5.94765 7.82912 5.38875 8.42278 4.93866 9.08544C4.92701 9.10246 4.91554 9.1196 4.90407 9.13675C4.88447 9.16609 4.86492 9.19548 4.84576 9.22509C4.81916 9.26604 4.79312 9.30733 4.76734 9.3488C4.76158 9.35812 4.75561 9.36736 4.74989 9.37668C4.20604 10.2603 3.84441 11.2664 3.71757 12.3418C3.71757 12.3418 3.71757 12.3419 3.71757 12.3419C3.70988 12.4071 3.70309 12.4726 3.69712 12.5383C3.69613 12.549 3.69518 12.5596 3.69424 12.5703C3.68947 12.6258 3.68534 12.6814 3.68182 12.7372C3.68079 12.7533 3.67963 12.7695 3.67873 12.7857C3.67576 12.838 3.67353 12.8906 3.67168 12.9433C3.67108 12.9604 3.67022 12.9775 3.6697 12.9947C3.66781 13.0629 3.66665 13.1313 3.66665 13.2C3.66665 13.42 3.8133 13.5667 4.0333 13.5667H5.1333V21.2667H0.77L2.16335 5.13335ZM5.86665 13.2C5.86665 10.3767 8.17665 8.06665 11 8.06665C13.8233 8.06665 16.1333 10.3767 16.1333 13.2V21.2667H14.3V17.2333C14.3 17.0133 14.1533 16.8667 13.9333 16.8667H8.8C8.64759 16.8667 8.53046 16.9371 8.47284 17.0536C8.40804 17.1427 8.39914 17.2507 8.43335 17.3521V21.2667H5.8667L5.86665 13.2ZM11.3483 18.9724L9.7472 17.6H12.9494L11.3483 18.9724ZM13.5667 18.0295V20.8738L11.9075 19.4517L13.5667 18.0295ZM10.7892 19.4517L9.16665 20.8424V18.061L10.7892 19.4517ZM11.3483 19.931L12.9067 21.2667H9.79L11.3483 19.931ZM16.8667 21.2667V13.5667H17.9667C18.1867 13.5667 18.3333 13.42 18.3333 13.2C18.3333 13.1313 18.3321 13.0629 18.3303 12.9947C18.3298 12.9775 18.3289 12.9605 18.3283 12.9433C18.3264 12.8906 18.3242 12.8381 18.3212 12.7857C18.3203 12.7695 18.3192 12.7533 18.3181 12.7372C18.3146 12.6814 18.3105 12.6258 18.3057 12.5703C18.3048 12.5596 18.3038 12.549 18.3028 12.5383C18.2969 12.4726 18.2901 12.4071 18.2824 12.3419C18.2824 12.3419 18.2824 12.3418 18.2824 12.3418C18.1556 11.2664 17.7939 10.2603 17.2501 9.37668C17.2443 9.36732 17.2384 9.35808 17.2326 9.34875C17.2068 9.30733 17.1808 9.26604 17.1542 9.22518C17.135 9.19549 17.1154 9.16601 17.0958 9.13653C17.0843 9.11952 17.0729 9.10246 17.0614 9.08553C16.6112 8.42278 16.0523 7.82912 15.3999 7.3333V5.1333H19.8366L21.2299 21.2667H16.8667Z" fill="#831D5C"/>
<path d="M17.6 1.46875C16.7933 1.46875 16.1333 2.12875 16.1333 2.9354C16.1333 3.1554 16.28 3.30205 16.5 3.30205C16.72 3.30205 16.8666 3.1554 16.8666 2.9354C16.8666 2.53205 17.1966 2.20205 17.6 2.20205C17.82 2.20205 17.9666 2.0554 17.9666 1.8354C17.9666 1.6154 17.82 1.46875 17.6 1.46875Z" fill="#831D5C"/>
<path d="M4.40025 1.46875C3.59359 1.46875 2.93359 2.12875 2.93359 2.9354C2.93359 3.1554 3.08025 3.30205 3.30025 3.30205C3.52025 3.30205 3.6669 3.1554 3.6669 2.9354C3.6669 2.53205 3.9969 2.20205 4.40025 2.20205C4.62025 2.20205 4.7669 2.0554 4.7669 1.8354C4.7669 1.6154 4.62025 1.46875 4.40025 1.46875Z" fill="#831D5C"/>
<path d="M9.16632 15.401H11.3663H13.5663H14.2997C14.5197 15.401 14.6663 15.2544 14.6663 15.0344C14.6663 14.8144 14.5197 14.6677 14.2997 14.6677H13.933V12.101C13.933 11.881 13.7864 11.7344 13.5664 11.7344H11.3664H9.16636C8.94636 11.7344 8.79971 11.881 8.79971 12.101V14.6677H8.43306C8.21306 14.6677 8.06641 14.8143 8.06641 15.0343C8.06641 15.2543 8.21306 15.401 8.43306 15.401H9.16632V15.401ZM13.1997 14.6677H11.733V12.4677H13.1997V14.6677ZM9.53302 12.4677H10.9997V14.6677H9.53302V12.4677Z" fill="#831D5C"/>
</svg>
