<svg width="12" height="12" viewBox="0 0 12 12" fill="none" xmlns="http://www.w3.org/2000/svg">
<path d="M0.810059 2.43136C0.810059 2.84167 0.996842 3.22189 1.32289 3.47523C1.55737 3.65748 1.83739 3.75357 2.13227 3.75357C2.4271 3.75357 2.70684 3.65748 2.94151 3.47523C3.26742 3.22194 3.4542 2.84144 3.4542 2.43136C3.4542 1.70243 2.86124 1.10938 2.13222 1.10938C1.40325 1.10938 0.810059 1.70243 0.810059 2.43136ZM2.13227 1.75888C2.50312 1.75888 2.80474 2.06073 2.80474 2.43136C2.80474 2.63975 2.70947 2.83297 2.54321 2.96226C2.30419 3.14778 1.96039 3.14778 1.72137 2.96226C1.55488 2.83297 1.45961 2.63971 1.45961 2.43136C1.45957 2.06051 1.76137 1.75888 2.13227 1.75888Z" fill="#851D5D"/>
<path d="M0.441884 8.19812C0.467254 8.21022 0.494345 8.21951 0.521164 8.22925C0.5348 8.23432 0.547394 8.24066 0.561212 8.2451V9.23651V9.24371V9.89771C0.561212 10.3216 0.936999 10.6667 1.399 10.6667H1.47542C1.73202 10.6667 1.96193 10.5605 2.11564 10.3933C2.26745 10.5815 2.50978 10.7039 2.7825 10.7039H2.85788C3.31617 10.7039 3.68906 10.3586 3.68906 9.93467V9.23755V8.23138C3.71592 8.22164 3.74088 8.20918 3.76612 8.19708C3.77699 8.19205 3.78881 8.18825 3.7995 8.18254C3.82288 8.17008 3.84399 8.15568 3.86587 8.14172C3.87761 8.13411 3.89043 8.12759 3.90162 8.11952C3.92141 8.10539 3.93886 8.0889 3.9568 8.07345C3.96812 8.06371 3.98067 8.05483 3.99127 8.04446C4.00821 8.02842 4.02244 8.01021 4.03757 7.99263C4.04731 7.98099 4.05841 7.97089 4.06752 7.95879C4.08156 7.94022 4.09311 7.9201 4.10534 7.90044C4.11296 7.88798 4.12206 7.87656 4.12881 7.86388C4.14064 7.84191 4.14956 7.81862 4.15903 7.79556C4.16374 7.78392 4.17013 7.77296 4.17425 7.76109C4.1829 7.73613 4.18829 7.7099 4.19391 7.68434C4.19631 7.67315 4.20034 7.66296 4.20216 7.65177C4.20841 7.61435 4.21185 7.5763 4.21185 7.53743V4.92708C4.21185 4.31866 3.56583 3.78567 3.14687 3.73652L2.99098 3.72266L2.88058 3.82835C2.82232 3.88398 2.75668 3.93377 2.68596 3.97644C2.32961 4.18928 1.86856 4.17455 1.52951 3.94632C1.48172 3.91429 1.43302 3.87447 1.38491 3.82876L1.29485 3.73869L1.14027 3.73131C0.652995 3.73131 0 4.32238 0 4.92708V7.53657C0 7.57716 0.00371483 7.61693 0.0106462 7.65585C0.0135909 7.6732 0.0199786 7.68969 0.0242823 7.70636C0.0296734 7.72729 0.0337959 7.74886 0.0410897 7.7692C0.0476586 7.78714 0.0571269 7.80385 0.0651908 7.82139C0.0735718 7.83955 0.080322 7.85817 0.0902433 7.8757C0.101116 7.89473 0.114797 7.91231 0.127256 7.93047C0.137313 7.94461 0.145422 7.95983 0.15634 7.97338C0.171245 7.99222 0.189003 8.00889 0.205901 8.02625C0.21691 8.03766 0.226424 8.05035 0.238157 8.06095C0.258996 8.07997 0.282373 8.09687 0.305477 8.11382C0.315217 8.12097 0.32387 8.12945 0.333791 8.1362C0.360656 8.15414 0.389695 8.16958 0.41887 8.1848C0.426572 8.18902 0.433639 8.19414 0.441884 8.19812ZM0.649099 4.92708C0.649099 4.72167 0.904607 4.48537 1.06045 4.40727C1.09574 4.43541 1.13108 4.46141 1.16682 4.48542C1.71018 4.85088 2.44975 4.87339 3.01876 4.53394C3.07511 4.50019 3.1292 4.46363 3.18094 4.42422C3.34371 4.51704 3.56225 4.74202 3.56225 4.92712V7.53661C3.56225 7.56497 3.51097 7.61467 3.42693 7.63157C3.41411 7.63433 3.40093 7.63519 3.38969 7.63605L3.05998 7.64452L3.05926 7.67832L3.04222 7.67877L3.03588 7.99064C3.03588 7.9953 3.03565 8.01261 3.03565 8.03802L3.02899 8.06657L3.03565 8.11137C3.03629 8.37925 3.03892 9.01421 3.03978 9.23896V9.93476C3.03978 9.99144 2.96208 10.0545 2.85816 10.0545H2.78277C2.67889 10.0545 2.60093 9.99144 2.60093 9.93476V8.07331H1.66406V9.89775C1.66406 9.9542 1.58329 10.0172 1.47547 10.0172H1.39904C1.29122 10.0172 1.21076 9.9542 1.21076 9.89775L1.21371 8.08981L1.22155 8.01306L1.20705 7.61621L0.874481 7.63564H0.869951C0.848251 7.63564 0.806527 7.63524 0.795518 7.6346C0.704912 7.62047 0.649099 7.56778 0.649099 7.5367V4.92708Z" fill="#851D5D"/>
<path d="M10.9125 9.7157V8.11601C10.9939 8.10224 11.1063 8.08452 11.2618 8.0621C11.3087 8.05535 11.3396 8.05027 11.3446 8.04901C11.7303 7.97118 12.0001 7.67014 12.0001 7.31786L11.4339 4.66964C11.4072 4.07762 10.7797 3.56565 10.3695 3.51777L10.2139 3.50391L10.1033 3.60964C10.0452 3.66523 9.97966 3.71502 9.90863 3.75774C9.55214 3.97053 9.091 3.95553 8.7525 3.72779C8.70847 3.6983 8.66411 3.6626 8.60998 3.61259L8.52372 3.52017L8.36303 3.51256C7.88608 3.51256 7.25048 4.0788 7.22344 4.66964L6.66485 7.24932L6.65747 7.31786C6.65747 7.68214 6.94904 7.99292 7.34947 8.05698C7.38753 8.06314 7.42685 8.06672 7.46681 8.06799L7.50169 8.06966C7.50427 8.06966 7.63977 8.06926 7.78415 8.06839V9.67868C7.78415 10.1026 8.16008 10.4479 8.6223 10.4479H8.69882C8.95528 10.4479 9.18487 10.3413 9.33904 10.1743C9.49062 10.3625 9.7329 10.4847 10.0057 10.4847H10.0811C10.5395 10.4847 10.9125 10.1396 10.9125 9.7157ZM10.2706 7.76817L10.252 7.84745L10.263 7.92003V9.7157C10.263 9.77214 10.1852 9.83521 10.0811 9.83521H10.0057C9.90188 9.83521 9.82405 9.77214 9.82405 9.7157V7.85425H8.88719V9.67868C8.88719 9.73536 8.80664 9.79837 8.69882 9.79837H8.62244C8.51462 9.79837 8.43384 9.73536 8.43384 9.67868L8.43665 7.87223L8.44548 7.79418L8.42646 7.41001L8.10068 7.41676C8.06068 7.41762 7.60299 7.4197 7.51587 7.42016L7.49322 7.41889C7.48012 7.41848 7.46721 7.41803 7.45349 7.41576C7.37715 7.40367 7.32578 7.3648 7.31137 7.3339L7.86493 4.77705L7.87209 4.70833C7.87209 4.50292 8.12773 4.26667 8.28398 4.18852C8.31891 4.21666 8.35438 4.24266 8.3899 4.26667C8.93349 4.63213 9.67265 4.65505 10.2423 4.31519C10.2981 4.28189 10.3518 4.24551 10.4042 4.20547C10.5671 4.29807 10.7852 4.52327 10.7852 4.70837L11.3464 7.33349C11.3329 7.36162 11.2866 7.39864 11.2242 7.4111L11.1685 7.41939C10.4992 7.51661 10.34 7.53962 10.2706 7.76817Z" fill="#851D5D"/>
<path d="M9.35534 0.894531C8.62628 0.894531 8.03345 1.48759 8.03345 2.21651C8.03345 2.62682 8.22032 3.00705 8.54637 3.26056C8.78108 3.44259 9.06055 3.53872 9.35547 3.53872C9.6504 3.53872 9.93037 3.44259 10.165 3.26034C10.4909 3.00705 10.6775 2.6266 10.6775 2.21647C10.6776 1.48759 10.0845 0.894531 9.35534 0.894531ZM9.76637 2.74742C9.52749 2.93293 9.18369 2.93293 8.94471 2.74742C8.77832 2.61812 8.683 2.42486 8.683 2.21651C8.683 1.84566 8.9849 1.54408 9.35557 1.54408C9.72664 1.54408 10.0281 1.84589 10.0281 2.21651C10.0281 2.42486 9.93272 2.6183 9.76637 2.74742Z" fill="#851D5D"/>
<path d="M5.96665 11.583V0.324731C5.96665 0.145422 5.8214 0 5.64191 0C5.46242 0 5.31714 0.145467 5.31714 0.324731V11.583C5.31714 11.7623 5.46242 11.9078 5.64191 11.9078C5.8214 11.9078 5.96665 11.7623 5.96665 11.583Z" fill="#851D5D"/>
</svg>
