<svg width="15" height="8" viewBox="0 0 15 8" fill="none" xmlns="http://www.w3.org/2000/svg">
<path d="M14.2241 2.61918V1.24137C14.2241 0.543112 13.6809 0 13.0086 0H9.77578C9.07752 0 8.53441 0.543112 8.53441 1.24137V2.61918C8.08953 2.73478 7.75854 3.14095 7.75854 3.6207V4.91381V7.24141C7.75854 7.5259 7.9913 7.75865 8.27579 7.75865H8.79303C9.07752 7.75865 9.31028 7.5259 9.31028 7.24141V6.72416H13.4482V7.24141C13.4482 7.5259 13.6809 7.75865 13.9654 7.75865H14.4827C14.7672 7.75865 14.9999 7.5259 14.9999 7.24141V4.91381V3.6207C14.9999 3.14095 14.6689 2.73478 14.2241 2.61918ZM9.05165 1.2414C9.05165 0.827601 9.36201 0.517273 9.77578 0.517273H12.9827C13.3965 0.517273 13.7068 0.827631 13.7068 1.2414V2.58622H13.4299C13.3064 1.70262 12.5585 1.03449 11.6378 1.03449H11.1206C10.1999 1.03449 9.45201 1.70262 9.32851 2.58622H9.05162V1.2414H9.05165ZM12.9051 2.58622H9.85339C9.9827 1.9914 10.4999 1.55173 11.1206 1.55173H11.6379C12.2586 1.55173 12.7758 1.9914 12.9051 2.58622ZM8.27579 3.6207C8.27579 3.33621 8.50854 3.10346 8.79303 3.10346H9.5689H13.1896H13.9655C14.25 3.10346 14.4827 3.33621 14.4827 3.6207V4.65519H8.27579V3.6207ZM14.4827 7.24141H13.9654V6.46554C13.9654 6.31036 13.862 6.20692 13.7068 6.20692H9.05165C8.92234 6.20692 8.79303 6.31036 8.79303 6.46554V7.24141H8.27579V5.17243H14.4827V7.24141Z" fill="#851D5D"/>
<path d="M6.46551 2.61918V1.24137C6.46551 0.543112 5.9224 0 5.25001 0H2.01724C1.31898 0 0.775865 0.543112 0.775865 1.24137V2.61918C0.330981 2.73478 0 3.14095 0 3.6207V4.91381V7.24141C0 7.5259 0.232754 7.75865 0.517243 7.75865H1.03449C1.31898 7.75865 1.55173 7.5259 1.55173 7.24141V6.72416H5.68965V7.24141C5.68965 7.5259 5.9224 7.75865 6.20689 7.75865H6.72413C7.00862 7.75865 7.24138 7.5259 7.24138 7.24141V4.91381V3.6207C7.24138 3.14095 6.9104 2.73478 6.46551 2.61918ZM1.29311 1.2414C1.29311 0.827601 1.60347 0.517273 2.01724 0.517273H5.22414C5.63794 0.517273 5.94827 0.827631 5.94827 1.2414V2.58622H5.67138C5.54788 1.70262 4.79997 1.03449 3.8793 1.03449H3.36205C2.44138 1.03449 1.69347 1.70262 1.56997 2.58622H1.29311V1.2414ZM5.14657 2.58622H2.09484C2.22415 1.9914 2.7414 1.55173 3.36208 1.55173H3.87933C4.50001 1.55173 5.01726 1.9914 5.14657 2.58622ZM0.517243 3.6207C0.517243 3.33621 0.749997 3.10346 1.03449 3.10346H1.81035H5.43106H6.20692C6.49141 3.10346 6.72416 3.33621 6.72416 3.6207V4.65519H0.517243V3.6207ZM6.72413 7.24141H6.20689V6.46554C6.20689 6.31036 6.10345 6.20692 5.94827 6.20692H1.29311C1.1638 6.20692 1.03449 6.31036 1.03449 6.46554V7.24141H0.517243V5.17243H6.72413V7.24141Z" fill="#851D5D"/>
</svg>
