<svg width="27" height="13" viewBox="0 0 27 13" fill="none" xmlns="http://www.w3.org/2000/svg">
<path d="M21.7601 4.18892L20.596 4.16802C20.5934 4.16802 20.5907 4.16797 20.5881 4.16797C20.3518 4.16797 20.1582 4.35739 20.1539 4.59459C20.1496 4.8345 20.3405 5.0324 20.5804 5.03675L21.7445 5.05764C21.7471 5.05764 21.7498 5.0577 21.7524 5.0577C21.9887 5.0577 22.1823 4.86827 22.1866 4.63107C22.1909 4.39117 22 4.19326 21.7601 4.18892Z" fill="#831D5C"/>
<path d="M25.6249 10C24.8805 10 24.4953 10.3731 24.1858 10.6729C23.9196 10.9307 23.7437 11.1011 23.3512 11.1011C22.9587 11.1011 22.7828 10.9307 22.5166 10.6729C22.207 10.3731 21.8217 10 21.0774 10C20.333 10 19.9478 10.3731 19.6382 10.6729C19.372 10.9308 19.1961 11.1011 18.8036 11.1011C18.5449 11.1011 18.3951 11.0227 18.2934 10.9544C18.0943 10.8207 17.8244 10.8736 17.6906 11.0728C17.5568 11.2719 17.6097 11.5418 17.8089 11.6756C18.1037 11.8737 18.429 11.9699 18.8036 11.9699C19.5479 11.9699 19.9332 11.5969 20.2427 11.2971C20.509 11.0392 20.6848 10.8689 21.0774 10.8689C21.47 10.8689 21.6458 11.0392 21.9121 11.2971C22.2217 11.5969 22.6068 11.9699 23.3512 11.9699C24.0956 11.9699 24.4807 11.5969 24.7903 11.297C25.0565 11.0392 25.2324 10.8689 25.6249 10.8689C25.8648 10.8689 26.0593 10.6744 26.0593 10.4344C26.0593 10.1945 25.8648 10 25.6249 10Z" fill="#831D5C"/>
<path d="M17.2044 10.3541C16.997 10.2709 16.7766 10.2305 16.5304 10.2305C15.7861 10.2305 15.4009 10.6036 15.0914 10.9034C14.8252 11.1612 14.6493 11.3315 14.2569 11.3315C13.8644 11.3315 13.6885 11.1612 13.4223 10.9034C13.1127 10.6036 12.7274 10.2305 11.9831 10.2305C11.2388 10.2305 10.8535 10.6035 10.544 10.9034C10.2778 11.1612 10.1019 11.3315 9.70934 11.3315C9.31675 11.3315 9.14082 11.1612 8.87454 10.9033C8.56494 10.6035 8.17971 10.2305 7.43536 10.2305C6.69101 10.2305 6.30577 10.6035 5.99617 10.9033C5.72995 11.1612 5.55406 11.3315 5.16147 11.3315C4.76883 11.3315 4.59285 11.1612 4.32658 10.9033C4.01697 10.6035 3.63169 10.2305 2.88729 10.2305C2.14288 10.2305 1.75765 10.6035 1.44805 10.9033C1.18177 11.1612 1.00579 11.3315 0.61315 11.3315C0.373243 11.3315 0.178711 11.526 0.178711 11.766C0.178711 12.0059 0.373192 12.2004 0.61315 12.2004C1.35755 12.2004 1.74289 11.8273 2.05244 11.5276C2.31871 11.2697 2.4946 11.0993 2.88734 11.0993C3.28003 11.0993 3.45596 11.2697 3.72224 11.5276C4.03184 11.8273 4.41712 12.2004 5.16153 12.2004C5.90588 12.2004 6.29111 11.8273 6.60066 11.5276C6.86689 11.2697 7.04277 11.0993 7.43541 11.0993C7.828 11.0993 8.00388 11.2697 8.2701 11.5276C8.57971 11.8273 8.96494 12.2004 9.70929 12.2004C10.4536 12.2004 10.8388 11.8273 11.1484 11.5276C11.4146 11.2697 11.5905 11.0993 11.9831 11.0993C12.3757 11.0993 12.5516 11.2697 12.8178 11.5276C13.1274 11.8273 13.5126 12.2004 14.257 12.2004C15.0013 12.2004 15.3864 11.8273 15.6959 11.5275C15.9622 11.2697 16.138 11.0993 16.5305 11.0993C16.6637 11.0993 16.7784 11.1194 16.881 11.1605C17.1035 11.2498 17.3566 11.1417 17.4459 10.919C17.5352 10.6963 17.4271 10.4434 17.2044 10.3541Z" fill="#831D5C"/>
<path d="M25.3798 4.16646C25.3828 4.1613 25.3855 4.15614 25.3881 4.15088L25.3889 4.14914C25.4601 4.16922 25.5301 4.18982 25.598 4.21107C25.6412 4.22461 25.6849 4.23105 25.7279 4.23105C25.9128 4.23105 26.0842 4.1121 26.1423 3.9264C26.214 3.69743 26.0865 3.45369 25.8576 3.382C25.6688 3.32288 25.4682 3.26754 25.2617 3.21757C25.2615 3.21751 25.2613 3.21746 25.2611 3.21741C23.5013 2.78926 21.1544 2.68752 18.5719 2.78711L15.3619 0.171995C15.2974 0.119466 15.2192 0.0865586 15.1365 0.0771565C10.3504 -0.466787 3.27981 2.03985 2.98124 2.14685C2.98012 2.14726 2.97915 2.14777 2.97807 2.14813C2.97705 2.14854 2.97598 2.14869 2.97501 2.1491L2.04824 2.49723C1.82366 2.58165 1.70996 2.83208 1.79433 3.05666C1.85978 3.23095 2.02524 3.33846 2.20107 3.33846C2.25181 3.33846 2.30347 3.32947 2.35375 3.31062L2.7861 3.14822L3.06274 4.80719C1.40112 5.12875 0.353045 5.36099 0.340168 5.3638C0.22213 5.39002 0.120393 5.46426 0.0593817 5.56866C-0.00162985 5.67305 -0.0163973 5.79814 0.0186562 5.91383L0.843181 8.63482C0.774607 8.65035 0.699237 8.65904 0.612982 8.65904C0.373075 8.65904 0.178543 8.85352 0.178543 9.09348C0.178543 9.33344 0.373024 9.52792 0.612982 9.52792C1.35738 9.52792 1.74272 9.15485 2.05227 8.85505C2.31855 8.59716 2.49443 8.42685 2.88717 8.42685C3.27986 8.42685 3.45579 8.59721 3.72207 8.85505C4.03167 9.15485 4.41696 9.52792 5.16136 9.52792C5.90571 9.52792 6.29094 9.15485 6.6005 8.85505C6.86672 8.59716 7.0426 8.42685 7.43519 8.42685C7.6751 8.42685 7.86963 8.23237 7.86963 7.99241C7.86963 7.75245 7.67515 7.55797 7.43519 7.55797C6.69084 7.55797 6.30561 7.93104 5.996 8.23084C5.72978 8.48873 5.5539 8.65904 5.16131 8.65904C4.76867 8.65904 4.59268 8.48868 4.32641 8.23084C4.0168 7.93104 3.63152 7.55797 2.88712 7.55797C2.25043 7.55797 1.87675 7.83089 1.58815 8.09747L0.98687 6.11316C1.62437 5.9779 2.88676 5.71725 4.52023 5.41592C4.75615 5.37244 4.9121 5.14582 4.86862 4.90989C4.82513 4.67392 4.59836 4.51792 4.36259 4.56151C4.21062 4.58956 4.06187 4.6172 3.9164 4.64449L3.6167 2.84725C4.24828 2.63535 5.69253 2.1723 7.44101 1.75032C8.09211 1.5932 8.72277 1.45692 9.33048 1.34138C9.51704 1.74884 9.85588 2.56933 10.0999 3.61808C8.62946 3.82835 7.19814 4.05977 5.86355 4.29227C5.62717 4.33345 5.46892 4.55844 5.51011 4.79482C5.55124 5.0312 5.77602 5.18915 6.01266 5.14827C16.9631 3.24071 22.1811 3.51128 24.5045 3.94424C24.1479 4.54398 22.9956 6.37387 21.5309 7.61101C21.3958 7.5779 21.2464 7.55802 21.0777 7.55802C20.3334 7.55802 19.9481 7.93109 19.6386 8.23094C19.3723 8.48873 19.1965 8.65909 18.8039 8.65909C18.4114 8.65909 18.2356 8.48873 17.9693 8.23094C17.6597 7.93114 17.2745 7.55802 16.5302 7.55802C15.7859 7.55802 15.4007 7.93114 15.0911 8.23094C14.8249 8.48873 14.6491 8.65909 14.2566 8.65909C13.8641 8.65909 13.6883 8.48873 13.422 8.23094C13.1124 7.93114 12.7272 7.55802 11.9829 7.55802C11.2386 7.55802 10.8533 7.93109 10.5437 8.23094C10.2775 8.48873 10.1016 8.65909 9.70907 8.65909C9.35108 8.65909 9.16937 8.51249 8.95174 8.30549C8.77796 8.14014 8.50299 8.14688 8.33759 8.32072C8.17223 8.4945 8.17898 8.76952 8.35282 8.93487C8.65435 9.22184 9.03273 9.52792 9.70907 9.52792C10.4534 9.52792 10.8386 9.15485 11.1482 8.85505C11.4144 8.59716 11.5903 8.42685 11.9829 8.42685C12.3755 8.42685 12.5514 8.59721 12.8176 8.85505C13.1271 9.15485 13.5124 9.52792 14.2567 9.52792C15.001 9.52792 15.3862 9.15485 15.6957 8.855C15.9619 8.59721 16.1378 8.42685 16.5303 8.42685C16.9228 8.42685 17.0986 8.59721 17.3649 8.855C17.6745 9.1548 18.0597 9.52792 18.804 9.52792C19.5484 9.52792 19.9336 9.15485 20.2432 8.855C20.5094 8.59721 20.6853 8.42685 21.0778 8.42685C21.4704 8.42685 21.6463 8.59721 21.9126 8.85505C22.2222 9.15485 22.6073 9.52792 23.3517 9.52792C24.096 9.52792 24.4812 9.15485 24.7908 8.855C25.057 8.59721 25.2329 8.42685 25.6254 8.42685C25.8653 8.42685 26.0598 8.23237 26.0598 7.99241C26.0598 7.75245 25.8654 7.55797 25.6254 7.55797C24.881 7.55797 24.4958 7.93104 24.1863 8.23089C23.9201 8.48868 23.7442 8.65904 23.3517 8.65904C22.9592 8.65904 22.7833 8.48868 22.5171 8.23089C22.4602 8.1758 22.4007 8.11821 22.3369 8.06093C24.0919 6.47647 25.3242 4.26723 25.3798 4.16646ZM10.9636 3.49759C10.7367 2.49202 10.4285 1.6819 10.2134 1.18584C12.0472 0.888703 13.6415 0.79928 14.913 0.926975L17.2762 2.85221C15.2242 2.97822 13.0658 3.21251 10.9636 3.49759Z" fill="#831D5C"/>
</svg>
