<svg width="21" height="18" viewBox="0 0 21 18" fill="none" xmlns="http://www.w3.org/2000/svg">
<path d="M4.94871 12.4805C3.71059 12.4805 2.66797 13.5329 2.66797 14.7827C2.66797 16.0325 3.71059 17.085 4.94871 17.085C6.18682 17.085 7.22944 16.0325 7.22944 14.7827C7.22944 13.5329 6.18682 12.4805 4.94871 12.4805ZM4.94871 15.7694C4.42739 15.7694 3.97125 15.309 3.97125 14.7827C3.97125 14.2565 4.42739 13.796 4.94871 13.796C5.47002 13.796 5.92617 14.2565 5.92617 14.7827C5.92617 15.309 5.47002 15.7694 4.94871 15.7694Z" fill="#831D5C"/>
<path d="M14.1362 12.4805C12.8864 12.4805 11.834 13.5329 11.834 14.7827C11.834 16.0325 12.8207 17.085 14.1362 17.085C15.386 17.085 16.4385 16.0325 16.4385 14.7827C16.4385 13.5329 15.386 12.4805 14.1362 12.4805ZM14.1362 15.7694C13.61 15.7694 13.1496 15.309 13.1496 14.7827C13.1496 14.2565 13.61 13.796 14.1362 13.796C14.6625 13.796 15.1229 14.2565 15.1229 14.7827C15.1229 15.309 14.6625 15.7694 14.1362 15.7694Z" fill="#831D5C"/>
<path d="M20.3438 9.91644V9.85077H20.2781L17.9812 6.23882C19.0312 5.64777 19.6875 4.59702 19.6875 3.4806V3.08657C19.6875 1.37911 18.3094 0 16.6031 0H11.025C9.77812 0 8.59688 0.788061 8.1375 1.97015H1.96875C0.853125 1.97015 0 2.82389 0 3.94031V15.1045H1.3125V3.94031C1.3125 3.54628 1.575 3.28359 1.96875 3.28359H9.12187L9.1875 2.75821C9.38437 1.90448 10.1063 1.31344 10.9594 1.31344H16.5375C17.5875 1.31344 18.375 2.1015 18.375 3.08657V3.41493C18.375 4.40001 17.5875 5.18807 16.6031 5.18807H14.4375V11.0985H19.5562L19.6875 11.2955V13.1344C19.6875 13.5284 19.425 13.7911 19.0312 13.7911H17.7188V15.1045H19.0312C20.1469 15.1045 21 14.2508 21 13.1344V10.9672L20.3438 9.91644ZM15.75 9.85077V6.56718H16.7344L18.7688 9.85077H15.75Z" fill="#831D5C"/>
<path d="M16.4385 2.625H11.1885V3.95902H16.4385V2.625Z" fill="#831D5C"/>
<path d="M11.8217 11.1627H13.125V5.25H8.56348V15.1045H9.86676V6.56393H11.8217V11.1627Z" fill="#831D5C"/>
<path d="M2.66797 9.85451H7.22944V5.25H2.66797V9.85451ZM3.97125 6.56557H5.92617V8.53893H3.97125V6.56557Z" fill="#831D5C"/>
</svg>
