<svg width="14" height="20" viewBox="0 0 14 20" fill="none" xmlns="http://www.w3.org/2000/svg">
<path d="M13.6008 4.30492C13.9005 4.50492 13.982 4.90964 13.782 5.2093C13.6561 5.39786 13.4493 5.50022 13.2385 5.50022C13.1146 5.50022 12.9887 5.46452 12.8776 5.39045L11.9025 4.73994V19.3481C11.9025 19.7077 11.6102 20 11.25 20C10.8897 20 10.5981 19.7077 10.5981 19.3481V18.9239H3.29368V19.3481C3.29368 19.7077 3.00142 20 2.64115 20C2.28155 20 1.98929 19.7077 1.98929 19.3481V4.73994L1.0142 5.39045C0.714531 5.59045 0.309141 5.50897 0.109812 5.2093C-0.0901892 4.90964 -0.00938038 4.50492 0.290285 4.30492L6.58394 0.109597C6.8028 -0.0365323 7.08832 -0.0365323 7.30785 0.109597L13.6008 4.30492ZM10.5981 17.6195V16.5764H3.29368V17.6195H10.5981ZM10.5981 15.6633V6.89154H3.29368V15.6633H10.5981ZM10.5981 5.97833V4.93455H3.29368V5.97833H10.5981ZM3.65395 3.63023H10.2372L6.94556 1.4356L3.65395 3.63023Z" fill="#831D5C"/>
<path d="M5.25425 11.3553C5.37614 11.4765 5.4455 11.6449 5.4455 11.8166C5.4455 11.9876 5.37614 12.156 5.25425 12.2772C5.13304 12.3984 4.96469 12.4685 4.79297 12.4685C4.62125 12.4685 4.4529 12.3984 4.33169 12.2772C4.21047 12.156 4.14111 11.9876 4.14111 11.8166C4.14111 11.6449 4.21047 11.4765 4.33169 11.3553C4.4529 11.2341 4.62125 11.1641 4.79297 11.1641C4.96536 11.1641 5.13304 11.2341 5.25425 11.3553Z" fill="#831D5C"/>
</svg>
