<svg width="29" height="21" viewBox="0 0 29 21" fill="none" xmlns="http://www.w3.org/2000/svg">
<path d="M4.206 20.309C1.494 17.597 0 13.991 0 10.155C0 6.319 1.494 2.713 4.206 0.0010004L4.715 0.51C2.139 3.086 0.72 6.511 0.72 10.155C0.72 13.799 2.139 17.224 4.715 19.8L4.206 20.309ZM24.514 20.309L24.004 19.799C26.58 17.223 27.999 13.798 27.999 10.154C27.999 6.511 26.58 3.086 24.004 0.509L24.514 0C27.226 2.713 28.72 6.32 28.72 10.155C28.72 13.991 27.226 17.596 24.514 20.309ZM14.36 18.515C9.75 18.515 6 14.764 6 10.155C6 5.545 9.75 1.795 14.36 1.795C18.969 1.795 22.72 5.545 22.72 10.155C22.72 14.764 18.969 18.515 14.36 18.515ZM14.36 2.515C10.147 2.515 6.72 5.942 6.72 10.155C6.72 14.368 10.147 17.795 14.36 17.795C18.573 17.795 22 14.368 22 10.155C22 5.942 18.573 2.515 14.36 2.515ZM22.393 18.188L21.883 17.678C23.893 15.669 24.999 12.996 24.999 10.155C24.999 7.314 23.893 4.641 21.883 2.631L22.393 2.122C24.539 4.268 25.72 7.121 25.72 10.155C25.72 13.189 24.539 16.043 22.393 18.188ZM6.327 18.188C4.182 16.043 3 13.189 3 10.155C3 7.121 4.182 4.268 6.327 2.122L6.836 2.631C4.827 4.641 3.72 7.313 3.72 10.155C3.72 12.997 4.827 15.67 6.836 17.678L6.327 18.188ZM14.36 11.515C13.61 11.515 13 10.905 13 10.155C13 9.405 13.61 8.795 14.36 8.795C15.11 8.795 15.72 9.405 15.72 10.155C15.72 10.905 15.11 11.515 14.36 11.515ZM14.36 9.515C14.007 9.515 13.72 9.802 13.72 10.155C13.72 10.508 14.007 10.795 14.36 10.795C14.713 10.795 15 10.508 15 10.155C15 9.802 14.713 9.515 14.36 9.515Z" fill="#831D5C"/>
</svg>
