<svg width="20" height="20" viewBox="0 0 20 20" fill="none" xmlns="http://www.w3.org/2000/svg">
<path d="M2 20H7V18.6667H2C1.82325 18.6665 1.65381 18.5962 1.52883 18.4712C1.40385 18.3462 1.33354 18.1767 1.33333 18V13H0V18C0.000595527 18.5303 0.2115 19.0386 0.586444 19.4136C0.961388 19.7885 1.46975 19.9994 2 20Z" fill="#831D5C"/>
<path d="M1.33333 2.28571C1.33354 2.08372 1.40385 1.89006 1.52883 1.74723C1.65381 1.6044 1.82325 1.52405 2 1.52381H7V0H2C1.46975 0.000680602 0.961388 0.241715 0.586444 0.670222C0.2115 1.09873 0.000595527 1.67971 0 2.28571V8H1.33333V2.28571Z" fill="#831D5C"/>
<path d="M17.7143 0H12V1.52381H17.7143C17.9163 1.52405 18.1099 1.6044 18.2528 1.74723C18.3956 1.89006 18.476 2.08372 18.4762 2.28571V8H20V2.28571C19.9993 1.67971 19.7583 1.09873 19.3298 0.670222C18.9013 0.241715 18.3203 0.000680602 17.7143 0Z" fill="#831D5C"/>
<path d="M18.4762 18C18.476 18.1767 18.3956 18.3462 18.2528 18.4712C18.1099 18.5962 17.9163 18.6665 17.7143 18.6667H12V20H17.7143C18.3203 19.9994 18.9013 19.7885 19.3298 19.4136C19.7583 19.0386 19.9993 18.5303 20 18V13H18.4762V18Z" fill="#831D5C"/>
<path d="M16 10C16 6.69167 13.3083 4 10 4C6.69167 4 4 6.69167 4 10C4 13.3083 6.69167 16 10 16C13.3083 16 16 13.3083 16 10ZM10 14.6667C9.07702 14.6667 8.17477 14.393 7.40734 13.8802C6.63991 13.3674 6.04177 12.6386 5.68856 11.7859C5.33535 10.9331 5.24294 9.99482 5.423 9.08958C5.60307 8.18433 6.04752 7.35281 6.70017 6.70017C7.35281 6.04752 8.18433 5.60307 9.08958 5.423C9.99482 5.24294 10.9331 5.33535 11.7859 5.68856C12.6386 6.04177 13.3674 6.63991 13.8802 7.40734C14.393 8.17477 14.6667 9.07702 14.6667 10C14.6653 11.2372 14.1732 12.4234 13.2983 13.2983C12.4234 14.1732 11.2372 14.6653 10 14.6667Z" fill="#831D5C"/>
</svg>
