<svg width="29" height="28" viewBox="0 0 29 28" fill="none" xmlns="http://www.w3.org/2000/svg">
<path d="M1 27H28" stroke="#831D5C" stroke-linecap="round" stroke-linejoin="round"/>
<path d="M12 27V8L3 9.87631V27" stroke="#831D5C" stroke-linecap="round" stroke-linejoin="round"/>
<path d="M27 27V8.42188L12 2V27" stroke="#831D5C" stroke-linecap="round" stroke-linejoin="round"/>
<path d="M22.9883 27L23 18.8937C23 18.3915 22.8156 17.9097 22.4874 17.5546C22.1592 17.1995 21.7141 17 21.25 17H17.75C17.2859 17 16.8407 17.1995 16.5125 17.5546C16.1843 17.9097 16 18.3915 16 18.8937V27" stroke="#831D5C" stroke-linecap="round" stroke-linejoin="round"/>
<path d="M1 11L12 8" stroke="#831D5C" stroke-linecap="round" stroke-linejoin="round"/>
<path d="M10 1L28 9" stroke="#831D5C" stroke-linecap="round" stroke-linejoin="round"/>
<path d="M27 8V2H23V6.32137" stroke="#831D5C" stroke-linecap="round" stroke-linejoin="round"/>
<path d="M16 9H19" stroke="#831D5C" stroke-linecap="round" stroke-linejoin="round"/>
</svg>
