<svg width="20" height="17" viewBox="0 0 20 17" fill="none" xmlns="http://www.w3.org/2000/svg">
<path d="M10.1346 9.80859C8.97963 9.80859 8.1731 10.6151 8.1731 11.7701V12.097C8.1731 13.6859 9.0715 14.7124 10.4615 14.7124C11.8516 14.7124 12.75 13.6859 12.75 12.097V11.7701C12.75 10.6151 11.9432 9.80859 10.7885 9.80859H10.1346ZM12.0962 11.7701V12.097C12.0962 12.6868 11.9366 14.0586 10.4615 14.0586C8.98614 14.0586 8.82692 12.6868 8.82692 12.097V11.7701C8.82692 10.9757 9.34017 10.4625 10.1346 10.4625H10.7885C11.5826 10.4625 12.0962 10.9757 12.0962 11.7701Z" fill="#831D5C"/>
<path d="M9.81757 11.7695H9.81397C9.63383 11.7695 9.48901 11.916 9.48901 12.0964C9.48901 12.2769 9.63678 12.4234 9.81757 12.4234C9.99802 12.4234 10.1445 12.2769 10.1445 12.0964C10.1445 11.916 9.99802 11.7695 9.81757 11.7695Z" fill="#831D5C"/>
<path d="M11.4172 7.52064C11.5993 7.5324 11.7546 7.39969 11.7683 7.21986L12.095 2.97508C12.1675 2.19702 13.2134 1.31007 14.0578 1.31007H14.7116C15.5721 1.31007 16.6176 2.19342 16.6741 2.96987L17.0011 7.21986C17.0141 7.39115 17.1573 7.5216 17.3267 7.5216C17.3348 7.5216 17.3437 7.52129 17.3522 7.52061C17.532 7.50689 17.6667 7.34962 17.653 7.16948L17.3261 2.92079C17.2387 1.72268 15.7911 0.65625 14.7116 0.65625H14.0578C12.8678 0.65625 11.5486 1.7959 11.4433 2.91953L11.1164 7.16952C11.1027 7.34966 11.2374 7.50693 11.4172 7.52064Z" fill="#831D5C"/>
<path d="M14.3676 2.8369C14.3231 2.7032 14.1983 2.61328 14.0577 2.61328C13.9168 2.61328 13.7919 2.7032 13.7474 2.8369C13.5019 3.57413 12.7784 3.59374 12.75 3.59405C12.5692 3.59405 12.4231 3.74052 12.4231 3.92096V5.22864C12.4231 6.32055 13.1691 7.84404 14.3846 7.84404C15.5998 7.84404 16.3462 6.32059 16.3462 5.22864V3.92096C16.3462 3.74052 16.1997 3.59405 16.0193 3.59405C16.0052 3.59405 14.6135 3.57344 14.3676 2.8369ZM15.6923 5.22868C15.6923 6.11727 15.1091 7.19022 14.3846 7.19022C13.6602 7.19022 13.077 6.11727 13.077 5.22868V4.20803C13.397 4.13547 13.7923 3.95303 14.0826 3.58164C14.5403 4.03965 15.271 4.18286 15.6924 4.22764V5.22868H15.6923Z" fill="#831D5C"/>
<path d="M6.53858 3.2671H6.86549C7.04594 3.2671 7.1924 3.12064 7.1924 2.94019C7.1924 2.75975 7.04594 2.61328 6.86549 2.61328H6.53858C6.35779 2.61328 6.21167 2.75975 6.21167 2.94019C6.21163 3.12064 6.35779 3.2671 6.53858 3.2671Z" fill="#831D5C"/>
<path d="M11.1252 12.4234C11.3056 12.4234 11.4521 12.2769 11.4521 12.0964C11.4521 11.916 11.3056 11.7695 11.1252 11.7695H11.1216C10.9414 11.7695 10.7966 11.916 10.7966 12.0964C10.7966 12.2769 10.9444 12.4234 11.1252 12.4234Z" fill="#831D5C"/>
<path d="M3.28174 3.84232C3.34419 4.47066 3.6175 5.0238 3.63057 5.04997C3.92675 5.64268 4.37496 6.53844 5.88469 6.53844C7.39443 6.53844 7.84232 5.64268 8.13851 5.04997C8.15157 5.0238 8.42489 4.47066 8.48768 3.84232C8.68973 3.73118 8.82704 3.51572 8.82704 3.26922V2.61536C8.82704 2.37377 8.69529 2.16256 8.50013 2.04946V1.96154C8.50013 0.879743 7.62004 0 6.53859 0H5.23091C4.14911 0 3.26937 0.879743 3.26937 1.96154V2.04946C3.07379 2.16256 2.94238 2.37377 2.94238 2.61536V3.26922C2.94238 3.51572 3.07969 3.73114 3.28174 3.84232ZM3.59624 2.61536C3.77669 2.61536 3.92315 2.4689 3.92315 2.28845V1.96154C3.92315 1.24033 4.50966 0.653859 5.23083 0.653859H6.53851C7.25972 0.653859 7.84619 1.24037 7.84619 1.96154V2.28845C7.84619 2.4689 7.99231 2.61536 8.1731 2.61536V3.26922C7.99231 3.26922 7.84619 3.41568 7.84619 3.59613C7.84619 4.16172 7.55656 4.75214 7.55361 4.75769C7.21329 5.43833 6.91316 5.88458 5.88465 5.88458C4.85584 5.88458 4.55571 5.43833 4.2157 4.758C4.21244 4.7521 3.92311 4.16168 3.92311 3.59613C3.92311 3.41568 3.77665 3.26922 3.5962 3.26922L3.59624 2.61536Z" fill="#831D5C"/>
<path d="M11.4424 15.0391C11.3776 15.0391 11.3145 15.0584 11.2609 15.094L10.4616 15.6269L9.66193 15.094C9.60833 15.0584 9.54523 15.0391 9.48083 15.0391C7.58959 15.0391 7.19238 15.928 7.19238 16.6737C7.19238 16.8541 7.3385 17.0006 7.51929 17.0006C7.69974 17.0006 7.8462 16.8541 7.8462 16.6737C7.8462 16.4108 7.8462 15.7217 9.38306 15.6936L10.2801 16.2918C10.39 16.3651 10.5328 16.3651 10.6427 16.2918L11.5401 15.6936C13.0769 15.7217 13.0769 16.4108 13.0769 16.6737C13.0769 16.8541 13.223 17.0006 13.4038 17.0006C13.5843 17.0006 13.7307 16.8541 13.7307 16.6737C13.7308 15.928 13.3336 15.0391 11.4424 15.0391Z" fill="#831D5C"/>
<path d="M17.3485 11.1133H17.3472C17.167 11.1133 17.0209 11.2587 17.0203 11.4389L17 16.6697C16.9994 16.8501 17.1448 16.9972 17.3256 16.9979H17.3269C17.5071 16.9979 17.6532 16.8524 17.6538 16.6723L17.6741 11.4415C17.6747 11.261 17.5293 11.1139 17.3485 11.1133Z" fill="#831D5C"/>
<path d="M4.90381 3.2671H5.23073C5.41117 3.2671 5.55764 3.12064 5.55764 2.94019C5.55764 2.75975 5.41117 2.61328 5.23073 2.61328H4.90381C4.72302 2.61328 4.5769 2.75975 4.5769 2.94019C4.5769 3.12064 4.72302 3.2671 4.90381 3.2671Z" fill="#831D5C"/>
<path d="M7.51274 9.21706L7.78636 7.85184C9.437 7.88911 10.625 8.30039 10.9892 8.96926C11.0752 9.12783 11.273 9.18634 11.4325 9.10002C11.5911 9.0137 11.6496 8.81525 11.5633 8.65672C11.0503 7.71388 9.62166 7.19537 7.54017 7.19537C7.37769 7.19242 7.23088 7.29835 7.19854 7.45788L6.87163 9.08826C6.83631 9.26545 6.95075 9.43773 7.12794 9.47306C7.14985 9.47762 7.17108 9.47961 7.19268 9.47961C7.34535 9.47957 7.48136 9.37234 7.51274 9.21706Z" fill="#831D5C"/>
<path d="M18.8137 8.82482C18.173 8.18537 17.2102 7.84766 16.029 7.84766C15.84 7.85126 15.6932 7.99052 15.6923 8.17361C15.6919 8.24031 15.6691 9.80529 14.3846 9.80529C13.0998 9.80529 13.0772 8.24062 13.0769 8.17395C13.0766 7.99381 12.9301 7.848 12.75 7.848C12.5692 7.848 12.4231 7.99412 12.4231 8.17491C12.4231 8.90593 12.7762 10.2375 14.0577 10.4326V12.0937C14.0577 12.2742 14.2038 12.4206 14.3846 12.4206C14.5651 12.4206 14.7115 12.2742 14.7115 12.0937V10.4323C15.8149 10.2639 16.2304 9.25437 16.3239 8.50964C17.1912 8.55833 17.8879 8.82448 18.3515 9.2877C18.7451 9.68035 18.9615 10.2122 18.9615 10.786V16.0167C18.9615 16.1972 19.1077 16.3437 19.2884 16.3437C19.4689 16.3437 19.6154 16.1972 19.6154 16.0167V10.786C19.6154 10.0374 19.3306 9.34103 18.8137 8.82482Z" fill="#831D5C"/>
<path d="M5.88457 7.19141C5.52399 7.19141 5.23071 7.48464 5.23071 7.84527C5.23071 8.08621 5.36312 8.29477 5.55762 8.40821V10.7876C5.55762 10.968 5.70374 11.1145 5.88453 11.1145C6.06498 11.1145 6.21144 10.968 6.21144 10.7876V8.40821C6.40564 8.29477 6.53835 8.08621 6.53835 7.84527C6.53843 7.48464 6.24485 7.19141 5.88457 7.19141Z" fill="#831D5C"/>
<path d="M2.28858 11.1133C2.10779 11.1133 1.96167 11.2597 1.96167 11.4402V16.671C1.96167 16.8514 2.10779 16.9979 2.28858 16.9979C2.46903 16.9979 2.61549 16.8514 2.61549 16.671V11.4402C2.61553 11.2597 2.46907 11.1133 2.28858 11.1133Z" fill="#831D5C"/>
<path d="M4.56974 7.45556C4.53706 7.29668 4.38305 7.19566 4.22777 7.19531C2.51043 7.19531 1.19685 7.5631 0.527011 8.23133C0.177535 8.5805 0 9.00062 0 9.47955V16.018C0 16.1985 0.146119 16.3449 0.326911 16.3449C0.507357 16.3449 0.653821 16.1985 0.653821 16.018V9.47955C0.653821 9.17616 0.76366 8.91921 0.98893 8.69394C1.49828 8.18558 2.58169 7.88315 3.98453 7.85178L5.56457 15.4308C5.60119 15.6074 5.77509 15.7208 5.95132 15.6842C6.1282 15.6473 6.24164 15.474 6.20437 15.2974L4.56974 7.45556Z" fill="#831D5C"/>
</svg>
