<svg width="15" height="23" viewBox="0 0 15 23" fill="none" xmlns="http://www.w3.org/2000/svg">
<path d="M15 0.761796C15 0.341768 14.6582 0 14.2382 0H7.49998C7.01396 0 6.60053 0.315505 6.45299 0.752338H4.49058C3.29556 0.752338 2.17084 1.21957 1.32352 2.06794C0.46851 2.92401 -0.00149214 4.06233 3.55888e-06 5.27323C0.00207115 6.93011 0.173065 8.54912 0.354397 10.2664C0.55007 12.1209 0.752341 14.0386 0.752341 16.152V18.0329C0.752341 18.4348 1.07928 18.7618 1.48119 18.7618H2.25706V21.4185C2.25706 22.0279 2.75275 22.5236 3.36208 22.5236H10.1333C10.7426 22.5236 11.2383 22.0279 11.2383 21.4185V7.58162C11.2383 6.93706 10.9119 6.34824 10.3653 6.00656L8.59351 4.89921C8.3652 4.75651 8.22887 4.51055 8.22887 4.24128V4.18352L14.1904 5.58623C14.2172 5.59252 14.2443 5.5956 14.2712 5.5956C14.369 5.5956 14.4639 5.55477 14.5315 5.48078C14.6177 5.38637 14.6461 5.25273 14.6057 5.13144L14.2295 4.00294C14.1944 3.89762 14.1118 3.81501 14.0065 3.77986L9.68392 2.33901L14.3705 1.51193C14.7353 1.44758 15 1.13211 15 0.761796ZM6.74764 1.45769C7.38287 1.45769 7.89968 1.9745 7.89968 2.60974C7.89968 3.24497 7.38287 3.76178 6.74764 3.76178C6.11241 3.76178 5.5956 3.24493 5.5956 2.60974C5.5956 1.97455 6.11241 1.45769 6.74764 1.45769ZM4.09088 1.47912C4.22281 1.46526 4.35615 1.45769 4.49058 1.45769H5.29237C5.11068 1.68671 4.98179 1.95924 4.92434 2.25706H4.49063C4.35575 2.25706 4.22241 2.26674 4.09092 2.28438L4.09088 1.47912ZM1.05544 10.1891C0.876485 8.49378 0.707338 6.8925 0.705315 5.2723C0.704039 4.24995 1.1008 3.28896 1.82256 2.56632C2.26709 2.12126 2.80216 1.80078 3.38557 1.62222V2.46949C3.01287 2.6188 2.6704 2.84381 2.37799 3.13798C1.81442 3.7049 1.50428 4.45662 1.50468 5.25475C1.50552 6.8387 1.67308 8.42555 1.85089 10.1094C1.98031 11.3364 2.11224 12.5909 2.18927 13.9184H1.3885C1.31195 12.6234 1.18253 11.3936 1.05544 10.1891ZM1.42448 14.6238H2.22451C2.23537 14.8871 2.24369 15.1534 2.24919 15.4232H1.44969C1.44402 15.1537 1.43557 14.8872 1.42448 14.6238ZM2.25702 18.0329C2.25702 18.0459 2.2465 18.0564 2.23353 18.0564H1.48119C1.46821 18.0564 1.4577 18.0459 1.4577 18.0329V16.152C1.4577 16.1441 1.45756 16.1364 1.45756 16.1285H2.25693C2.25693 16.1365 2.25706 16.1442 2.25706 16.152V18.0329H2.25702ZM2.28843 7.24074C2.24056 6.57115 2.21039 5.91075 2.20999 5.25449C2.20968 4.64411 2.44697 4.06906 2.87817 3.63526C3.30955 3.20137 3.88219 2.96241 4.49054 2.96241H4.92421C4.97893 3.24602 5.09823 3.50685 5.26637 3.72887V4.24137C5.26637 4.5106 5.13004 4.7566 4.90173 4.8993L3.12994 6.00665C2.68158 6.28683 2.38182 6.73352 2.28843 7.24074ZM9.99142 6.60471C10.3305 6.81666 10.5329 7.18183 10.5329 7.58162V21.4185C10.5329 21.6389 10.3536 21.8182 10.1332 21.8182H3.36203C3.14164 21.8182 2.96233 21.6389 2.96233 21.4185V7.58162C2.96233 7.18179 3.16478 6.81657 3.50377 6.60471L5.27556 5.49736C5.69599 5.2346 5.95228 4.78836 5.96996 4.29592C6.20673 4.4055 6.47001 4.46713 6.74755 4.46713C7.02509 4.46713 7.28838 4.4055 7.52514 4.29588C7.54291 4.7884 7.79921 5.23456 8.21954 5.49732L9.99142 6.60471ZM13.6161 4.39327L13.7367 4.75492L8.38033 3.49458C8.50672 3.2623 8.58463 3.00003 8.6013 2.72165L13.6161 4.39327ZM14.248 0.817401L8.43849 1.84262C8.21031 1.34169 7.7663 0.959229 7.22569 0.815113C7.29736 0.747279 7.39374 0.705355 7.49998 0.705355H14.2382C14.2693 0.705355 14.2946 0.730694 14.2946 0.76184C14.2946 0.789203 14.275 0.812606 14.248 0.817401Z" fill="#831D5C"/>
<path d="M6.75154 2.25391H6.74776C6.55301 2.25391 6.39697 2.41179 6.39697 2.60658C6.39697 2.80138 6.5567 2.95926 6.7515 2.95926C6.94629 2.95926 7.10422 2.80133 7.10422 2.60658C7.10422 2.41183 6.94633 2.25391 6.75154 2.25391Z" fill="#831D5C"/>
<path d="M8.62847 11.2891H4.86673C4.25741 11.2891 3.76172 11.7848 3.76172 12.3941V16.9082C3.76172 17.5175 4.25741 18.0132 4.86673 18.0132H8.62847C9.23779 18.0132 9.73348 17.5175 9.73348 16.9082V12.3941C9.73348 11.7848 9.23779 11.2891 8.62847 11.2891ZM9.02817 16.9082C9.02817 17.1286 8.84887 17.3079 8.62847 17.3079H4.86673C4.64634 17.3079 4.46703 17.1286 4.46703 16.9082V12.3941C4.46703 12.1737 4.64634 11.9944 4.86673 11.9944H8.62847C8.84887 11.9944 9.02817 12.1737 9.02817 12.3941V16.9082Z" fill="#831D5C"/>
<path d="M7.87585 12.7969H5.61879C5.42404 12.7969 5.26611 12.9548 5.26611 13.1496C5.26611 13.3443 5.424 13.5022 5.61879 13.5022H7.87585C8.0706 13.5022 8.22853 13.3443 8.22853 13.1496C8.22853 12.9548 8.07064 12.7969 7.87585 12.7969Z" fill="#831D5C"/>
<path d="M9.39033 7.17827L9.19101 7.05364C9.02587 6.95044 8.80824 7.00063 8.70504 7.16573C8.60179 7.33092 8.65199 7.5485 8.81713 7.65175L9.0165 7.77637C9.0234 7.78069 9.02754 7.78812 9.02754 7.7963V10.1394C9.02754 10.3342 9.18542 10.4921 9.38022 10.4921C9.57497 10.4921 9.7329 10.3342 9.7329 10.1394V7.7963C9.73285 7.54335 9.60479 7.31231 9.39033 7.17827Z" fill="#831D5C"/>
<path d="M8.06319 6.33672L7.79603 6.16973C7.71236 6.11742 7.63159 6.05957 7.55597 5.99768C7.40521 5.87437 7.1831 5.89658 7.05971 6.0473C6.93636 6.19806 6.95861 6.42021 7.10933 6.54356C7.20805 6.62429 7.31327 6.69978 7.42219 6.76787L7.68935 6.93487C7.74746 6.9712 7.81209 6.98853 7.87592 6.98853C7.99346 6.98853 8.10841 6.92976 8.17532 6.82273C8.27857 6.65754 8.22833 6.43992 8.06319 6.33672Z" fill="#831D5C"/>
<path d="M9.38074 20.3086H8.62831C8.43356 20.3086 8.27563 20.4665 8.27563 20.6613C8.27563 20.856 8.43352 21.0139 8.62831 21.0139H9.38074C9.57549 21.0139 9.73342 20.8561 9.73342 20.6613C9.73337 20.4665 9.57549 20.3086 9.38074 20.3086Z" fill="#831D5C"/>
<path d="M7.1235 20.3086H4.11415C3.9194 20.3086 3.76147 20.4665 3.76147 20.6613C3.76147 20.856 3.91936 21.0139 4.11415 21.0139H7.1235C7.31825 21.0139 7.47618 20.8561 7.47618 20.6613C7.47618 20.4665 7.31825 20.3086 7.1235 20.3086Z" fill="#831D5C"/>
</svg>
