<svg width="25" height="25" viewBox="0 0 25 25" fill="none" xmlns="http://www.w3.org/2000/svg">
<path d="M1 14.841C1 10.5242 1 8.36574 2.34731 7.02466C3.69462 5.68359 5.86307 5.68359 10.2 5.68359H14.8C19.1369 5.68359 21.3054 5.68359 22.6527 7.02466C23.4038 7.77234 23.7362 8.77409 23.8833 10.2623M24 14.841C24 19.1578 24 21.3163 22.6527 22.6573C21.3054 23.9984 19.1369 23.9984 14.8 23.9984H10.2C5.8631 23.9984 3.69461 23.9984 2.34731 22.6573C1.59615 21.9096 1.26378 20.9079 1.11671 19.4197" stroke="#831D5C" stroke-linecap="round"/>
<path d="M17.1851 5.68518C17.1851 3.47657 17.1851 2.37226 16.4989 1.68613C15.8128 1 14.7085 1 12.4999 1C10.2913 1 9.18695 1 8.50083 1.68613C7.8147 2.37226 7.8147 3.47657 7.8147 5.68518" stroke="#831D5C"/>
<path d="M14.2038 14.8443H10.7964M12.5001 13.1406V16.548" stroke="#831D5C" stroke-linecap="round"/>
<path d="M12.4999 19.3137C15.0874 19.3137 17.1851 17.2637 17.1851 14.735C17.1851 12.2062 15.0874 10.1562 12.4999 10.1562C9.91233 10.1562 7.8147 12.2062 7.8147 14.735C7.8147 17.2637 9.91233 19.3137 12.4999 19.3137Z" stroke="#831D5C"/>
</svg>
