<svg width="24" height="24" viewBox="0 0 24 24" fill="none" xmlns="http://www.w3.org/2000/svg">
<path d="M23.6 23.1999H21.9753C21.9923 23.0685 22 22.9343 22 22.8C22 21.6709 21.3503 20.7099 20.4 20.2649V6.79997C20.4 6.55997 20.2401 6.39998 20.0001 6.39998H14.0001V0.399984C14.0001 0.159984 13.8401 1.02979e-08 13.6001 1.02979e-08H2.80008C2.55998 -4.68647e-05 2.4 0.159938 2.4 0.399938V23.1999H0.399984C0.159984 23.1999 0 23.3599 0 23.5999C0 23.8399 0.159984 24 0.399984 24H2.79998H3.99998H13.6H21.48H23.6C23.84 24 24 23.84 24 23.6C24 23.36 23.84 23.1999 23.6 23.1999ZM19.6 20.0282C19.4694 20.01 19.336 19.9999 19.2 19.9999C18.898 19.9999 18.6018 20.0513 18.322 20.1475C18.2523 20.0546 18.1399 19.9999 18 19.9999C17.76 19.9999 17.6 20.1599 17.6 20.3999V20.5225C17.4484 20.6317 17.3075 20.7563 17.1795 20.8948C17.1593 20.9162 17.1395 20.9378 17.12 20.9599C16.7886 20.5455 16.3616 20.2458 15.8789 20.0999C15.8096 20.0363 15.714 19.9999 15.6 19.9999C15.5554 19.9999 15.5136 20.0055 15.475 20.016C15.3847 20.0055 15.293 19.9999 15.2 19.9999C14.9493 19.9999 14.667 20.0324 14.4383 20.1253C14.41 20.1348 14.3819 20.1447 14.3541 20.1552C14.0776 19.9305 13.7543 19.7687 13.4137 19.6797C13.41 19.6787 13.4063 19.678 13.4028 19.677C13.3731 19.6694 13.3433 19.6621 13.3133 19.6556C13.289 19.6503 13.2645 19.6456 13.2399 19.641C13.2293 19.6391 13.2187 19.637 13.208 19.6351C13.1822 19.6307 13.1564 19.6267 13.1304 19.6231C13.1188 19.6215 13.1071 19.62 13.0955 19.6186C13.0716 19.6156 13.0477 19.6129 13.0236 19.6107C13.006 19.609 12.9884 19.6078 12.9707 19.6065C12.9519 19.6052 12.9331 19.6037 12.9141 19.6028C12.8761 19.601 12.8381 19.5998 12.8 19.5998C12.7706 19.5998 12.7414 19.6005 12.7123 19.6015C12.6933 19.6022 12.6743 19.6034 12.6553 19.6044C12.6477 19.6049 12.64 19.6052 12.6324 19.6057C12.268 19.6299 11.91 19.7328 11.6 19.9149V7.19995H13.6H19.6V20.0282ZM3.20002 0.799969H13.2V6.39998H11.2C10.96 6.39998 10.8 6.55997 10.8 6.79997V19.24C10.5956 19.0356 10.3599 18.8626 10.1034 18.7273C10.0808 18.7152 10.0579 18.7035 10.0349 18.6921C10.0259 18.6876 10.0169 18.683 10.0078 18.6786C9.72234 18.5401 9.4117 18.4493 9.08709 18.4153C9.08255 18.4148 9.07795 18.4145 9.07336 18.414C9.03567 18.4102 8.9978 18.4073 8.95973 18.4051C8.94966 18.4045 8.93958 18.4039 8.92945 18.4034C8.88647 18.4013 8.84334 18.4 8.79998 18.4C8.20467 18.4 7.65314 18.5958 7.2 18.9248V18.8C7.2 18.56 7.04002 18.4 6.80002 18.4C6.56002 18.4 6.40003 18.56 6.40003 18.8V19.6C6.40003 19.66 6.41002 19.715 6.42877 19.7638C6.23236 20.0874 6.09703 20.4523 6.04003 20.8401C5.57953 20.8927 5.15845 21.0584 4.80005 21.3061V21.2001C4.80005 20.9601 4.64006 20.8001 4.40006 20.8001C4.16006 20.8001 4.00008 20.9601 4.00008 21.2001V22.0001C4.00008 22.0468 4.00631 22.0903 4.01784 22.1303C3.81952 22.4511 3.68456 22.8141 3.62897 23.2H3.20011V0.799969H3.20002ZM6.21797 21.6082C6.22589 21.6075 6.23391 21.6071 6.24188 21.6065C6.26297 21.6048 6.28406 21.6032 6.30534 21.6022C6.3367 21.6008 6.36825 21.5999 6.40003 21.5999C6.64003 21.5999 6.80002 21.4399 6.80002 21.1999C6.80002 20.0799 7.68 19.1999 8.80003 19.1999C9.80002 19.1999 10.64 19.9199 10.76 20.9199C10.7871 21.0281 10.8513 21.1172 10.9391 21.1765C10.9447 21.1804 10.9503 21.184 10.9561 21.1876C10.9623 21.1914 10.9684 21.1953 10.9748 21.1987C10.9896 21.2069 11.005 21.2144 11.021 21.2208C11.0216 21.221 11.0222 21.2212 11.0228 21.2215C11.0411 21.2288 11.0603 21.235 11.08 21.2399C11.08 21.2399 11.08 21.2399 11.0801 21.24C11.1039 21.2479 11.1309 21.2509 11.1595 21.25C11.291 21.252 11.4133 21.18 11.48 21.0801C11.48 21.08 11.4801 21.08 11.4801 21.08L11.5201 21.04C11.8401 20.64 12.2801 20.4 12.8001 20.4C13.0702 20.4 13.3402 20.4757 13.5825 20.6171C13.1053 21.0658 12.8347 21.6506 12.8033 22.2764C12.8012 22.3173 12.8001 22.3586 12.8001 22.4C12.8001 22.6782 12.8464 22.9447 12.9379 23.2H4.44C4.62722 22.3388 5.34019 21.688 6.21797 21.6082ZM13.8822 23.1999C13.7294 22.9415 13.64 22.6359 13.64 22.3599C13.64 21.9176 13.8144 21.5191 14.1141 21.2279C14.1714 21.1747 14.2325 21.1257 14.297 21.0813C14.3595 21.0818 14.4223 21.0688 14.48 21.0399C15.36 20.5599 16.4 21 16.72 21.8799C16.76 21.9999 16.88 22.1199 17.08 22.1199C17.118 22.1199 17.16 22.1078 17.2022 22.0864C17.3025 22.0699 17.3819 21.9962 17.44 21.8799C17.595 21.5505 17.835 21.2876 18.1272 21.1032C18.1902 21.0856 18.2444 21.0545 18.2874 21.0123C18.5622 20.8742 18.8736 20.7999 19.2 20.7999C20.32 20.7999 21.2001 21.6799 21.2001 22.8C21.2001 22.92 21.2001 23.0799 21.1601 23.1999H13.8822Z" fill="#831D5C"/>
<path d="M13.1998 10.3984C12.9598 10.3984 12.7998 10.5584 12.7998 10.7984V11.5984C12.7998 11.8384 12.9598 11.9984 13.1998 11.9984C13.4398 11.9984 13.5998 11.8384 13.5998 11.5984V10.7984C13.5998 10.5584 13.4398 10.3984 13.1998 10.3984Z" fill="#831D5C"/>
<path d="M13.1998 17.6016C12.9598 17.6016 12.7998 17.7615 12.7998 18.0015V18.8016C12.7998 19.0416 12.9598 19.2015 13.1998 19.2015C13.4398 19.2015 13.5998 19.0416 13.5998 18.8016V18.0015C13.5998 17.7615 13.4398 17.6016 13.1998 17.6016Z" fill="#831D5C"/>
<path d="M13.1998 12.8008C12.9598 12.8008 12.7998 12.9608 12.7998 13.2008V14.0008C12.7998 14.2408 12.9598 14.4008 13.1998 14.4008C13.4398 14.4008 13.5998 14.2408 13.5998 14.0008V13.2008C13.5998 12.9608 13.4398 12.8008 13.1998 12.8008Z" fill="#831D5C"/>
<path d="M13.1998 15.1992C12.9598 15.1992 12.7998 15.3592 12.7998 15.5992V16.3992C12.7998 16.6392 12.9598 16.7992 13.1998 16.7992C13.4398 16.7992 13.5998 16.6392 13.5998 16.3992V15.5992C13.5998 15.3592 13.4398 15.1992 13.1998 15.1992Z" fill="#831D5C"/>
<path d="M13.1998 8C12.9598 8 12.7998 8.15998 12.7998 8.39998V9.2C12.7998 9.44 12.9598 9.59998 13.1998 9.59998C13.4398 9.59998 13.5998 9.44 13.5998 9.2V8.39998C13.5998 8.15998 13.4398 8 13.1998 8Z" fill="#831D5C"/>
<path d="M15.6002 11.9984C15.8402 11.9984 16.0002 11.8384 16.0002 11.5984V10.7984C16.0002 10.5584 15.8402 10.3984 15.6002 10.3984C15.3602 10.3984 15.2002 10.5584 15.2002 10.7984V11.5984C15.2002 11.8384 15.3602 11.9984 15.6002 11.9984Z" fill="#831D5C"/>
<path d="M15.6002 9.59998C15.8402 9.59998 16.0002 9.44 16.0002 9.2V8.39998C16.0002 8.15998 15.8402 8 15.6002 8C15.3602 8 15.2002 8.15998 15.2002 8.39998V9.2C15.2002 9.44 15.3602 9.59998 15.6002 9.59998Z" fill="#831D5C"/>
<path d="M15.6002 14.4008C15.8402 14.4008 16.0002 14.2408 16.0002 14.0008V13.2008C16.0002 12.9608 15.8402 12.8008 15.6002 12.8008C15.3602 12.8008 15.2002 12.9608 15.2002 13.2008V14.0008C15.2002 14.2408 15.3602 14.4008 15.6002 14.4008Z" fill="#831D5C"/>
<path d="M15.6002 16.7992C15.8402 16.7992 16.0002 16.6392 16.0002 16.3992V15.5992C16.0002 15.3592 15.8402 15.1992 15.6002 15.1992C15.3602 15.1992 15.2002 15.3592 15.2002 15.5992V16.3992C15.2002 16.6392 15.3602 16.7992 15.6002 16.7992Z" fill="#831D5C"/>
<path d="M15.6002 19.2015C15.8402 19.2015 16.0002 19.0416 16.0002 18.8016V18.0015C16.0002 17.7615 15.8402 17.6016 15.6002 17.6016C15.3602 17.6016 15.2002 17.7615 15.2002 18.0015V18.8016C15.2002 19.0416 15.3602 19.2015 15.6002 19.2015Z" fill="#831D5C"/>
<path d="M18.0001 14.4008C18.2401 14.4008 18.4001 14.2408 18.4001 14.0008V13.2008C18.4001 12.9608 18.2401 12.8008 18.0001 12.8008C17.7601 12.8008 17.6001 12.9608 17.6001 13.2008V14.0008C17.6001 14.2408 17.7601 14.4008 18.0001 14.4008Z" fill="#831D5C"/>
<path d="M18.0001 11.9984C18.2401 11.9984 18.4001 11.8384 18.4001 11.5984V10.7984C18.4001 10.5584 18.2401 10.3984 18.0001 10.3984C17.7601 10.3984 17.6001 10.5584 17.6001 10.7984V11.5984C17.6001 11.8384 17.7601 11.9984 18.0001 11.9984Z" fill="#831D5C"/>
<path d="M18.0001 19.2015C18.2401 19.2015 18.4001 19.0416 18.4001 18.8016V18.0015C18.4001 17.7615 18.2401 17.6016 18.0001 17.6016C17.7601 17.6016 17.6001 17.7615 17.6001 18.0015V18.8016C17.6001 19.0416 17.7601 19.2015 18.0001 19.2015Z" fill="#831D5C"/>
<path d="M18.0001 16.7992C18.2401 16.7992 18.4001 16.6392 18.4001 16.3992V15.5992C18.4001 15.3592 18.2401 15.1992 18.0001 15.1992C17.7601 15.1992 17.6001 15.3592 17.6001 15.5992V16.3992C17.6001 16.6392 17.7601 16.7992 18.0001 16.7992Z" fill="#831D5C"/>
<path d="M18.0001 9.59998C18.2401 9.59998 18.4001 9.44 18.4001 9.2V8.39998C18.4001 8.15998 18.2401 8 18.0001 8C17.7601 8 17.6001 8.15998 17.6001 8.39998V9.2C17.6001 9.44 17.7601 9.59998 18.0001 9.59998Z" fill="#831D5C"/>
<path d="M4.39998 15.2015C4.63998 15.2015 4.79997 15.0416 4.79997 14.8016V14.0015C4.79997 13.7615 4.63998 13.6016 4.39998 13.6016C4.15998 13.6016 4 13.7615 4 14.0015V14.8016C3.99995 15.0415 4.15998 15.2015 4.39998 15.2015Z" fill="#831D5C"/>
<path d="M4.39998 17.6C4.63998 17.6 4.79997 17.44 4.79997 17.2V16.4C4.79997 16.16 4.63998 16 4.39998 16C4.15998 16 4 16.16 4 16.4V17.2C3.99995 17.44 4.15998 17.6 4.39998 17.6Z" fill="#831D5C"/>
<path d="M4.39998 19.9984C4.63998 19.9984 4.79997 19.8384 4.79997 19.5984V18.7984C4.79997 18.5584 4.63998 18.3984 4.39998 18.3984C4.15998 18.3984 4 18.5584 4 18.7984V19.5984C3.99995 19.8384 4.15998 19.9984 4.39998 19.9984Z" fill="#831D5C"/>
<path d="M4.39998 3.20155C4.63998 3.20155 4.79997 3.04156 4.79997 2.80156V2.00155C4.79997 1.76155 4.63998 1.60156 4.39998 1.60156C4.15998 1.60156 4 1.76155 4 2.00155V2.80156C3.99995 3.04152 4.15998 3.20155 4.39998 3.20155Z" fill="#831D5C"/>
<path d="M4.39998 5.59998C4.63998 5.59998 4.79997 5.44 4.79997 5.2V4.39998C4.79997 4.15998 4.63998 4 4.39998 4C4.15998 4 4 4.15998 4 4.39998V5.2C3.99995 5.43995 4.15998 5.59998 4.39998 5.59998Z" fill="#831D5C"/>
<path d="M4.39998 7.99842C4.63998 7.99842 4.79997 7.83844 4.79997 7.59844V6.79842C4.79997 6.55842 4.63998 6.39844 4.39998 6.39844C4.15998 6.39844 4 6.55842 4 6.79842V7.59844C3.99995 7.83839 4.15998 7.99842 4.39998 7.99842Z" fill="#831D5C"/>
<path d="M4.39998 10.4008C4.63998 10.4008 4.79997 10.2408 4.79997 10.0008V9.20077C4.79997 8.96077 4.63998 8.80078 4.39998 8.80078C4.15998 8.80078 4 8.96077 4 9.20077V10.0008C3.99995 10.2407 4.15998 10.4008 4.39998 10.4008Z" fill="#831D5C"/>
<path d="M4.39998 12.7992C4.63998 12.7992 4.79997 12.6392 4.79997 12.3992V11.5992C4.79997 11.3592 4.63998 11.1992 4.39998 11.1992C4.15998 11.1992 4 11.3592 4 11.5992V12.3992C3.99995 12.6392 4.15998 12.7992 4.39998 12.7992Z" fill="#831D5C"/>
<path d="M6.79989 5.59998C7.03989 5.59998 7.19987 5.44 7.19987 5.2V4.39998C7.19987 4.15998 7.03989 4 6.79989 4C6.55989 4 6.3999 4.15998 6.3999 4.39998V5.2C6.39986 5.43995 6.55989 5.59998 6.79989 5.59998Z" fill="#831D5C"/>
<path d="M6.79989 3.20155C7.03989 3.20155 7.19987 3.04156 7.19987 2.80156V2.00155C7.19987 1.76155 7.03989 1.60156 6.79989 1.60156C6.55989 1.60156 6.3999 1.76155 6.3999 2.00155V2.80156C6.39986 3.04152 6.55989 3.20155 6.79989 3.20155Z" fill="#831D5C"/>
<path d="M6.79989 10.4008C7.03989 10.4008 7.19987 10.2408 7.19987 10.0008V9.20077C7.19987 8.96077 7.03989 8.80078 6.79989 8.80078C6.55989 8.80078 6.3999 8.96077 6.3999 9.20077V10.0008C6.39986 10.2407 6.55989 10.4008 6.79989 10.4008Z" fill="#831D5C"/>
<path d="M6.79989 7.99842C7.03989 7.99842 7.19987 7.83844 7.19987 7.59844V6.79842C7.19987 6.55842 7.03989 6.39844 6.79989 6.39844C6.55989 6.39844 6.3999 6.55842 6.3999 6.79842V7.59844C6.39986 7.83839 6.55989 7.99842 6.79989 7.99842Z" fill="#831D5C"/>
<path d="M6.79989 12.7992C7.03989 12.7992 7.19987 12.6392 7.19987 12.3992V11.5992C7.19987 11.3592 7.03989 11.1992 6.79989 11.1992C6.55989 11.1992 6.3999 11.3592 6.3999 11.5992V12.3992C6.39986 12.6392 6.55989 12.7992 6.79989 12.7992Z" fill="#831D5C"/>
<path d="M6.79989 15.2015C7.03989 15.2015 7.19987 15.0416 7.19987 14.8016V14.0015C7.19987 13.7615 7.03989 13.6016 6.79989 13.6016C6.55989 13.6016 6.3999 13.7615 6.3999 14.0015V14.8016C6.39986 15.0415 6.55989 15.2015 6.79989 15.2015Z" fill="#831D5C"/>
<path d="M6.79989 17.6C7.03989 17.6 7.19987 17.44 7.19987 17.2V16.4C7.19987 16.16 7.03989 16 6.79989 16C6.55989 16 6.3999 16.16 6.3999 16.4V17.2C6.39986 17.44 6.55989 17.6 6.79989 17.6Z" fill="#831D5C"/>
<path d="M9.19979 7.99842C9.43979 7.99842 9.59977 7.83844 9.59977 7.59844V6.79842C9.59977 6.55842 9.43979 6.39844 9.19979 6.39844C8.95979 6.39844 8.7998 6.55842 8.7998 6.79842V7.59844C8.79976 7.83839 8.95979 7.99842 9.19979 7.99842Z" fill="#831D5C"/>
<path d="M9.19979 5.59998C9.43979 5.59998 9.59977 5.44 9.59977 5.2V4.39998C9.59977 4.15998 9.43979 4 9.19979 4C8.95979 4 8.7998 4.15998 8.7998 4.39998V5.2C8.79976 5.43995 8.95979 5.59998 9.19979 5.59998Z" fill="#831D5C"/>
<path d="M9.19979 3.20155C9.43979 3.20155 9.59977 3.04156 9.59977 2.80156V2.00155C9.59977 1.76155 9.43979 1.60156 9.19979 1.60156C8.95979 1.60156 8.7998 1.76155 8.7998 2.00155V2.80156C8.79976 3.04152 8.95979 3.20155 9.19979 3.20155Z" fill="#831D5C"/>
<path d="M9.19979 17.6C9.43979 17.6 9.59977 17.44 9.59977 17.2V16.4C9.59977 16.16 9.43979 16 9.19979 16C8.95979 16 8.7998 16.16 8.7998 16.4V17.2C8.79976 17.44 8.95979 17.6 9.19979 17.6Z" fill="#831D5C"/>
<path d="M9.19979 15.2015C9.43979 15.2015 9.59977 15.0416 9.59977 14.8016V14.0015C9.59977 13.7615 9.43979 13.6016 9.19979 13.6016C8.95979 13.6016 8.7998 13.7615 8.7998 14.0015V14.8016C8.79976 15.0415 8.95979 15.2015 9.19979 15.2015Z" fill="#831D5C"/>
<path d="M9.19979 12.7992C9.43979 12.7992 9.59977 12.6392 9.59977 12.3992V11.5992C9.59977 11.3592 9.43979 11.1992 9.19979 11.1992C8.95979 11.1992 8.7998 11.3592 8.7998 11.5992V12.3992C8.79976 12.6392 8.95979 12.7992 9.19979 12.7992Z" fill="#831D5C"/>
<path d="M9.19979 10.4008C9.43979 10.4008 9.59977 10.2408 9.59977 10.0008V9.20077C9.59977 8.96077 9.43979 8.80078 9.19979 8.80078C8.95979 8.80078 8.7998 8.96077 8.7998 9.20077V10.0008C8.79976 10.2407 8.95979 10.4008 9.19979 10.4008Z" fill="#831D5C"/>
<path d="M11.6002 5.59998C11.8402 5.59998 12.0002 5.44 12.0002 5.2V4.39998C12.0002 4.15998 11.8402 4 11.6002 4C11.3602 4 11.2002 4.15998 11.2002 4.39998V5.2C11.2001 5.43995 11.3602 5.59998 11.6002 5.59998Z" fill="#831D5C"/>
<path d="M11.6002 3.20155C11.8402 3.20155 12.0002 3.04156 12.0002 2.80156V2.00155C12.0002 1.76155 11.8402 1.60156 11.6002 1.60156C11.3602 1.60156 11.2002 1.76155 11.2002 2.00155V2.80156C11.2001 3.04152 11.3602 3.20155 11.6002 3.20155Z" fill="#831D5C"/>
</svg>
