<svg width="19" height="19" viewBox="0 0 19 19" fill="none" xmlns="http://www.w3.org/2000/svg">
<path d="M4.50297 17.0403H3.22106C2.93603 17.0403 2.70483 16.8092 2.70483 16.524C2.70483 16.2389 2.93599 16.0078 3.22106 16.0078H4.50297C4.78801 16.0078 5.0192 16.2389 5.0192 16.524C5.0192 16.8092 4.78808 17.0403 4.50297 17.0403Z" fill="#831D5C"/>
<path d="M18.4837 17.0403H17.1256C16.8406 17.0403 16.6094 16.8092 16.6094 16.524C16.6094 16.2389 16.8405 16.0078 17.1256 16.0078H18.4837C18.7687 16.0078 18.9999 16.2389 18.9999 16.524C18.9999 16.8092 18.7688 17.0403 18.4837 17.0403Z" fill="#831D5C"/>
<path d="M17.9169 16.9771H17.1258C16.8408 16.9771 16.6096 16.7459 16.6096 16.4608C16.6096 16.1757 16.8407 15.9446 17.1258 15.9446H17.4006V15.7175C17.4006 14.6637 16.9513 13.8127 16.1011 13.2568C15.4819 12.8519 14.6958 12.6379 13.8278 12.6379H6.30494C5.61786 12.6379 5.01668 13.1259 4.87533 13.7982L4.42423 15.9446H4.57931C4.86435 15.9446 5.09554 16.1757 5.09554 16.4609C5.09554 16.746 4.86439 16.9771 4.57931 16.9771H3.78822C3.63269 16.9771 3.48544 16.907 3.38736 16.7862C3.28939 16.6654 3.25098 16.5069 3.28305 16.3547L3.86496 13.5859C4.10617 12.4384 5.13232 11.6055 6.30494 11.6055H13.8278C14.8971 11.6055 15.8786 11.8777 16.6661 12.3927C17.8055 13.1379 18.4331 14.3186 18.4331 15.7176V16.4609C18.4331 16.7459 18.202 16.9771 17.9169 16.9771Z" fill="#831D5C"/>
<path d="M12.0805 16.9778H8.14123C7.85619 16.9778 7.625 16.7467 7.625 16.4615C7.625 16.1764 7.85615 15.9453 8.14123 15.9453H12.0805C12.3655 15.9453 12.5967 16.1764 12.5967 16.4615C12.5967 16.7467 12.3655 16.9778 12.0805 16.9778Z" fill="#831D5C"/>
<path d="M15.9587 13.102C15.8817 13.102 15.8043 13.0848 15.7325 13.0498C15.1816 12.7812 14.523 12.6392 13.8276 12.6392H6.26475C6.09564 12.6392 5.93722 12.5563 5.84073 12.4174C5.74432 12.2785 5.72195 12.1012 5.78106 11.9427L6.86005 9.04769C6.86217 9.04198 6.86443 9.03622 6.86681 9.03055C7.21731 8.18379 8.03594 7.63672 8.95232 7.63672H13.5518C14.5761 7.63672 15.4736 8.3284 15.7345 9.31881C15.7358 9.32397 15.7371 9.32913 15.7383 9.33429L16.4617 12.4697C16.5065 12.6636 16.4358 12.8659 16.28 12.9898C16.1869 13.0639 16.0732 13.102 15.9587 13.102ZM7.00808 11.6068H13.8276C14.317 11.6068 14.7943 11.6656 15.243 11.7796L14.7343 9.57479C14.5903 9.04112 14.1051 8.6691 13.5518 8.6691H8.95236C8.45791 8.6691 8.0159 8.96267 7.82397 9.41767L7.00808 11.6068Z" fill="#831D5C"/>
<path d="M12.0802 14.8106C11.7952 14.8106 11.564 14.5795 11.564 14.2943V8.35217C11.564 8.06705 11.7951 7.83594 12.0802 7.83594C12.3652 7.83594 12.5964 8.06705 12.5964 8.35217V14.2944C12.5964 14.5795 12.3652 14.8106 12.0802 14.8106Z" fill="#831D5C"/>
<path d="M15.6784 18.3524C14.5506 18.3524 13.6331 17.4348 13.6331 16.3071C13.6331 15.1792 14.5506 14.2617 15.6784 14.2617C16.8062 14.2617 17.7237 15.1792 17.7237 16.3071C17.7237 17.4348 16.8061 18.3524 15.6784 18.3524ZM15.6784 15.2941C15.1199 15.2941 14.6655 15.7485 14.6655 16.307C14.6655 16.8656 15.12 17.3199 15.6784 17.3199C16.2369 17.3199 16.6913 16.8655 16.6913 16.307C16.6913 15.7485 16.2369 15.2941 15.6784 15.2941Z" fill="#831D5C"/>
<path d="M6.00207 18.3485C4.87428 18.3485 3.95679 17.4309 3.95679 16.3032C3.95679 15.1753 4.87432 14.2578 6.00207 14.2578C7.12982 14.2578 8.04735 15.1753 8.04735 16.3032C8.04739 17.4309 7.12982 18.3485 6.00207 18.3485ZM6.00207 15.2902C5.44357 15.2902 4.98921 15.7446 4.98921 16.3031C4.98921 16.8617 5.44357 17.316 6.00207 17.316C6.56057 17.316 7.01493 16.8616 7.01493 16.3031C7.01493 15.7446 6.5606 15.2902 6.00207 15.2902Z" fill="#831D5C"/>
<path d="M7.0205 7.07932H0.516229C0.231154 7.07932 0 6.8482 0 6.56313V0.516229C0 0.231117 0.231154 0 0.516229 0H7.02054C7.30558 0 7.53677 0.231117 7.53677 0.516229V6.56313C7.53673 6.8482 7.30558 7.07932 7.0205 7.07932ZM1.03242 6.0469H6.50431V1.03246H1.03242V6.0469Z" fill="#831D5C"/>
<path d="M3.83579 1.76562H2.87458C2.67694 1.76562 2.52783 1.89272 2.52783 2.06131V5.01451C2.52783 5.1913 2.70859 5.3148 2.96743 5.3148C3.2263 5.3148 3.4071 5.19134 3.4071 5.01451V4.08893H3.78937C4.56451 4.08893 5.00908 3.66807 5.00908 2.93427V2.91104C5.00908 2.17242 4.59238 1.76562 3.83579 1.76562ZM3.78937 3.37688H3.4071V2.55197H3.78937C4.01848 2.55197 4.12984 2.67855 4.12984 2.93887V2.98994C4.12984 3.2503 4.01852 3.37688 3.78937 3.37688Z" fill="#831D5C"/>
<path d="M3.76843 11.4204C3.48339 11.4204 3.2522 11.1893 3.2522 10.9042V6.62951C3.2522 6.3444 3.48335 6.11328 3.76843 6.11328C4.0535 6.11328 4.28465 6.3444 4.28465 6.62951V10.9042C4.28462 11.1893 4.05346 11.4204 3.76843 11.4204Z" fill="#831D5C"/>
</svg>
