<svg width="22" height="22" viewBox="0 0 22 22" fill="none" xmlns="http://www.w3.org/2000/svg">
<path d="M21.652 21.3053H19.6837V10.3229C19.8686 10.3876 20.0638 10.421 20.2613 10.421C20.8694 10.421 21.4227 10.116 21.7412 9.60523C21.9841 9.21589 22.0593 8.75639 21.9529 8.3114C21.8457 7.86285 21.5674 7.48322 21.1694 7.24255L11.9068 1.64188C11.3474 1.30363 10.6525 1.30359 10.0932 1.64188L6.71608 3.68388V0.81052C6.71608 0.363645 6.35248 0 5.9056 0H4.05309C3.60617 0 3.24262 0.363645 3.24262 0.81052V5.78411L0.830608 7.24255C0.432588 7.48322 0.154366 7.86277 0.0471156 8.3114C-0.0592751 8.75643 0.0158773 9.21594 0.258737 9.60523C0.694698 10.3042 1.56172 10.5863 2.3163 10.3229V21.3053H0.348069C0.156213 21.3053 0.000709319 21.4608 0.000709319 21.6526C0.000709319 21.8445 0.156256 22 0.348069 22H4.51617C4.70802 22 4.86353 21.8445 4.86353 21.6526C4.86353 21.4608 4.70798 21.3053 4.51617 21.3053H3.01106V9.94666L11.0001 5.11603L16.2743 8.30517C16.4384 8.40447 16.652 8.35175 16.7512 8.18761C16.8504 8.02347 16.7978 7.80991 16.6337 7.71066L11.1798 4.41289C11.0693 4.34612 10.9308 4.34612 10.8203 4.41289L2.28476 9.574C1.79362 9.87091 1.14918 9.72009 0.848182 9.23755C0.704494 9.00728 0.660022 8.73572 0.722799 8.47296C0.786436 8.2066 0.952381 7.9808 1.19004 7.83711L5.09994 5.47302C5.26408 5.37376 5.31667 5.1602 5.21746 4.99606C5.11816 4.83188 4.90465 4.7792 4.74051 4.8785L3.93733 5.36413V0.81052C3.93733 0.746711 3.98928 0.694719 4.05314 0.694719H5.90556C5.96937 0.694719 6.02136 0.746668 6.02136 0.81052V4.10395L5.73119 4.27943C5.56705 4.37869 5.51442 4.59224 5.61367 4.75638C5.71293 4.92057 5.92649 4.9732 6.09063 4.87395L10.4527 2.23639C10.7903 2.03225 11.2097 2.03225 11.5474 2.23639L20.81 7.83703C21.0477 7.98076 21.2137 8.2066 21.2773 8.47288C21.3401 8.73563 21.2955 9.0072 21.1519 9.23751C20.961 9.54353 20.6281 9.72623 20.2613 9.72628C20.0689 9.72628 19.8801 9.67355 19.7153 9.57391L17.6955 8.35265C17.5314 8.2534 17.3178 8.30603 17.2185 8.47021C17.1193 8.63436 17.1719 8.84791 17.3361 8.94717L18.9891 9.94666V21.3052H5.83612C5.64427 21.3052 5.48876 21.4608 5.48876 21.6526C5.48876 21.8445 5.64431 22 5.83612 22H21.6521C21.8439 22 21.9994 21.8444 21.9994 21.6526C21.9994 21.4608 21.8439 21.3053 21.652 21.3053Z" fill="#831D5C"/>
<path d="M6.48438 13.3144V17.4829C6.48438 17.9298 6.84793 18.2934 7.29485 18.2934H14.7049C15.1519 18.2934 15.5154 17.9297 15.5154 17.4829V13.3144C15.5154 12.8675 15.1519 12.5039 14.7049 12.5039H7.29485C6.84798 12.5039 6.48433 12.8675 6.48438 13.3144ZM10.6525 17.5986H7.29485C7.23104 17.5986 7.17905 17.5467 7.17905 17.4828V15.0513H10.6525V17.5986ZM11.3473 15.0513H13.7787C13.9706 15.0513 14.1261 14.8957 14.1261 14.7039C14.1261 14.512 13.9705 14.3565 13.7787 14.3565H11.3473V13.1986H14.705C14.7688 13.1986 14.8208 13.2506 14.8208 13.3144V17.4829C14.8208 17.5467 14.7688 17.5987 14.705 17.5987H11.3473V15.0513ZM10.6525 14.3565H7.17901V13.3144C7.17901 13.2506 7.23096 13.1986 7.29481 13.1986H10.6525V14.3565Z" fill="#831D5C"/>
<path d="M11.6948 9.95752C12.3971 9.95752 12.9684 9.38616 12.9684 8.68384C12.9684 7.98151 12.3971 7.41016 11.6948 7.41016H10.3054C9.60309 7.41016 9.03174 7.98151 9.03174 8.68384C9.03174 9.38616 9.60309 9.95752 10.3054 9.95752H11.6948ZM9.7265 8.68384C9.7265 8.36458 9.9862 8.10487 10.3054 8.10487H11.6948C12.014 8.10487 12.2737 8.36458 12.2737 8.68384C12.2737 9.00309 12.014 9.2628 11.6948 9.2628H10.3054C9.98616 9.2628 9.7265 9.00309 9.7265 8.68384Z" fill="#831D5C"/>
</svg>
