<svg width="19" height="18" viewBox="0 0 19 18" fill="none" xmlns="http://www.w3.org/2000/svg">
<path d="M5.87241 1.36128C5.22618 0.483426 4.35128 0 3.40888 0C2.46648 0 1.59158 0.483463 0.94535 1.36128C0.335746 2.18938 0 3.28167 0 4.43696C0 5.5921 0.335746 6.68428 0.945276 7.51241C1.23293 7.90319 1.56602 8.21522 1.93005 8.44183V16.5211C1.93005 16.9168 2.08422 17.2882 2.3628 17.566C2.64175 17.8459 3.01323 18 3.40888 18C4.22429 18 4.88767 17.3366 4.88767 16.5212V8.4419C5.25167 8.21529 5.58479 7.90319 5.87245 7.51245C6.48194 6.68424 6.81768 5.59206 6.81768 4.43692C6.81776 3.28167 6.48201 2.18938 5.87241 1.36128ZM3.80552 16.5212C3.80552 16.7399 3.6276 16.9178 3.40892 16.9178C3.30303 16.9178 3.20374 16.8767 3.12809 16.8007C3.0534 16.7264 3.01228 16.6271 3.01228 16.5212V8.84382C3.14288 8.86303 3.27507 8.87391 3.40888 8.87391C3.54269 8.87391 3.67488 8.86311 3.80548 8.84382L3.80552 16.5212ZM5.00094 6.87091C4.56384 7.46469 3.99846 7.79173 3.40888 7.79173C2.8193 7.79173 2.25392 7.46469 1.81682 6.87091C1.3431 6.22726 1.08219 5.36294 1.08219 4.43696C1.08219 3.51082 1.3431 2.64636 1.81682 2.00286C2.25385 1.40912 2.8193 1.08219 3.40888 1.08219C3.99846 1.08219 4.56391 1.40912 5.00094 2.00286C5.47466 2.6464 5.73557 3.51082 5.73557 4.43696C5.73557 5.36294 5.47466 6.22726 5.00094 6.87091Z" fill="#831D5C"/>
<path d="M10.6552 0C9.15086 0 7.927 1.22363 7.927 2.72765V9.25702C7.927 9.93987 8.3298 10.5303 8.91016 10.8036V16.5212C8.91016 17.3366 9.57354 18 10.3889 18C11.2044 18 11.8677 17.3366 11.8677 16.5212V10.4247V1.2126C11.8678 0.543951 11.3239 0 10.6552 0ZM10.7856 16.5212C10.7856 16.7399 10.6077 16.9178 10.389 16.9178C10.1703 16.9178 9.99242 16.7399 9.99242 16.5212V10.9658H10.7857V16.5212H10.7856ZM10.7856 9.88359H9.63579C9.29031 9.88359 9.00922 9.6025 9.00922 9.25702V2.72765C9.00922 1.82036 9.74759 1.08219 10.6552 1.08219C10.7272 1.08219 10.7857 1.14068 10.7857 1.2126V9.88359H10.7856Z" fill="#831D5C"/>
<path d="M18.343 2.04694C18.0442 2.04694 17.802 2.28918 17.802 2.58801V5.32053H16.828V0.541074C16.828 0.242248 16.5858 0 16.2869 0C15.9881 0 15.7459 0.242248 15.7459 0.541074V5.32053H14.7719V0.541074C14.7719 0.242248 14.5296 0 14.2308 0C13.9319 0 13.6897 0.242248 13.6897 0.541074V5.8616V6.98004C13.6897 7.74806 14.1495 8.41033 14.8081 8.70717V16.5211C14.8081 17.3365 15.4715 17.9999 16.2869 17.9999C17.1023 17.9999 17.7657 17.3365 17.7657 16.5211V8.70717C18.4243 8.41033 18.8841 7.7481 18.8841 6.98004V5.8616V2.58801C18.8841 2.28918 18.6419 2.04694 18.343 2.04694ZM16.6835 16.5211C16.6835 16.7399 16.5056 16.9177 16.2869 16.9177C16.0682 16.9177 15.8903 16.7398 15.8903 16.5211V8.87388H16.6835V16.5211H16.6835ZM17.8019 6.98004C17.8019 7.42758 17.4378 7.79169 16.9903 7.79169H15.5835C15.1359 7.79169 14.7718 7.42758 14.7718 6.98004V6.40271H17.8019V6.98004Z" fill="#831D5C"/>
<path d="M18.3431 0C18.0442 0 17.802 0.242248 17.802 0.541074V0.96475C17.802 1.26361 18.0442 1.50586 18.3431 1.50586C18.6419 1.50586 18.8842 1.26361 18.8842 0.964787V0.541111C18.8842 0.242248 18.6419 0 18.3431 0Z" fill="#831D5C"/>
</svg>
