<svg width="16" height="25" viewBox="0 0 16 25" fill="none" xmlns="http://www.w3.org/2000/svg">
<path d="M14.7472 1.61394C14.5835 1.24533 14.3427 0.888789 14.0013 0.60705C13.6625 0.325994 13.2084 0.134148 12.7328 0.121404C12.2572 0.102605 11.7923 0.265643 11.4308 0.521845C11.0679 0.780781 10.7982 1.12253 10.6097 1.48542C10.4212 1.84968 10.3099 2.23572 10.2475 2.62107C10.1885 3.01751 10.1751 3.36429 10.1469 3.73025L10.0007 5.89823L9.86047 8.06489C9.81823 8.66157 9.78669 9.25854 9.82224 9.8606C9.62233 9.74019 9.42712 9.61406 9.24133 9.47588C9.18361 9.43662 9.12932 9.39438 9.07497 9.34941C9.00456 9.08779 8.92741 8.8289 8.87038 8.56728C8.75837 8.11616 8.6651 7.65898 8.5759 7.20155C8.39679 6.28729 8.23712 5.36693 8.08688 4.44359L7.86549 3.06009L7.83732 2.87932C7.82457 2.82263 7.81788 2.76799 7.80509 2.70491C7.7796 2.57878 7.74743 2.45837 7.71588 2.33801C7.64816 2.10056 7.56227 1.86277 7.45026 1.63132C7.22623 1.17419 6.89684 0.734834 6.42999 0.419208C5.97252 0.103289 5.36211 -0.0680986 4.76372 0.0255052C4.61011 0.0492846 4.47866 0.0795093 4.319 0.139519C4.26465 0.160271 4.20698 0.184441 4.12715 0.223699C4.05669 0.259588 3.99297 0.292791 3.92925 0.335028C3.67905 0.494354 3.46841 0.711054 3.31479 0.948506C3.00825 1.42976 2.91499 1.96506 2.90293 2.46751C2.89956 3.47806 3.19072 4.42557 3.52344 5.31605C3.85278 6.19413 4.16939 7.07856 4.47598 7.96298C4.61953 8.38691 4.76372 8.81689 4.91734 9.24424C4.84087 9.23481 4.76372 9.23213 4.68726 9.23481C4.32569 9.24692 3.98359 9.37368 3.70185 9.55679C3.30342 9.81943 3.02304 10.181 2.83383 10.572C2.75669 10.509 2.67216 10.4526 2.58095 10.414C2.34013 10.3061 2.07245 10.2751 1.81757 10.2976C1.30375 10.3389 0.834853 10.6048 0.516883 10.9734C0.192908 11.3434 0.0332395 11.8123 0.00506553 12.261C-0.02179 12.7222 0.0627803 13.122 0.149255 13.5325C0.242517 13.9396 0.370643 14.3422 0.555751 14.7268C0.721425 15.0716 0.925381 15.4077 1.20175 15.7065C1.19906 16.3236 1.23329 17.1655 1.29633 17.7058C1.37616 18.3263 1.49487 18.9468 1.69545 19.5535C1.90073 20.1552 2.17036 20.7569 2.60439 21.2718C2.73921 21.4308 2.89082 21.5793 3.05581 21.7131C2.88882 21.8473 2.73989 22.01 2.64057 22.2136C2.48496 22.5167 2.4809 22.9085 2.62983 23.2251C2.77739 23.5444 3.02759 23.7865 3.28989 23.9801C3.5562 24.1732 3.84731 24.3148 4.1418 24.4339C5.33111 24.8934 6.58614 24.9863 7.80099 25C9.02653 24.9866 10.2816 24.8934 11.4669 24.4037C12.0431 24.1544 12.6408 23.7859 12.9433 23.1647C13.0855 22.8578 13.1197 22.4902 12.9983 22.1689C12.9077 21.9066 12.7105 21.6886 12.4764 21.5467C12.577 21.4307 12.6702 21.3103 12.7507 21.1848C13.1847 20.5251 13.4088 19.7892 13.5242 19.0574C13.7375 17.587 13.8777 16.1575 13.9789 14.702C14.0802 13.2527 14.1406 11.8051 14.2473 10.3656C14.3526 8.92578 14.5095 7.49364 14.741 6.07089C14.7986 5.71537 14.8603 5.36019 14.9267 5.00565C14.9958 4.65115 15.0542 4.27347 15.0797 3.89583C15.1268 3.14368 15.0725 2.35784 14.7472 1.61394ZM1.68954 15.4665C1.19716 14.9151 0.947647 14.1514 0.789345 13.4105C0.720937 13.0379 0.658534 12.6421 0.680702 12.3037C0.705507 11.9575 0.82626 11.6313 1.04696 11.3827C1.26562 11.1325 1.57821 10.9661 1.90761 10.896C2.17324 10.8451 2.44155 10.8535 2.67163 10.9799C2.66088 11.0118 2.64951 11.044 2.64008 11.0758C2.36235 12.2249 2.4395 13.4011 2.84804 14.4928C2.98554 14.8447 3.16133 15.1864 3.38735 15.5034C3.14048 15.711 2.86211 15.8727 2.58173 15.8931C2.24628 15.9213 1.93569 15.7335 1.68954 15.4665ZM14.389 3.85608C14.3689 4.20154 14.3152 4.54163 14.2528 4.90052C14.1918 5.26039 14.1354 5.62064 14.0838 5.98182C13.8731 7.42636 13.739 8.88032 13.6585 10.3319C13.5753 11.7835 13.5378 13.2317 13.4613 14.6739C13.4223 15.3954 13.3741 16.1155 13.311 16.8343C13.2453 17.554 13.1909 18.2748 13.0031 18.961C12.9166 19.3058 12.8093 19.6432 12.6939 19.9728C12.5751 20.3015 12.4491 20.6268 12.274 20.9224C12.0982 21.2158 11.8903 21.4891 11.6267 21.6988C11.3611 21.906 11.0498 22.0503 10.6876 22.1066L10.7198 22.4054C11.127 22.4095 11.563 22.2827 11.9098 22.0506C12.0299 21.9728 12.1385 21.8829 12.2418 21.789C12.4096 21.9248 12.5222 22.0985 12.5645 22.2867C12.6148 22.5077 12.5604 22.7361 12.437 22.932C12.1935 23.3328 11.7038 23.6048 11.1941 23.7893C10.6742 23.9694 10.1128 24.0817 9.54191 24.1428C8.97175 24.2082 8.38615 24.2343 7.80724 24.2303C7.21764 24.2347 6.63805 24.2082 6.06388 24.1461C5.49102 24.0888 4.92622 23.9821 4.39898 23.8138C3.88447 23.6407 3.37265 23.3838 3.13857 22.9964C3.01919 22.8082 2.98764 22.5895 3.06074 22.3702C3.11372 22.2129 3.21704 22.0617 3.34853 21.9238C3.35659 21.9292 3.36465 21.9352 3.37266 21.9403C3.66982 22.1184 4.00386 22.2394 4.34331 22.2965L4.41641 22.0037C3.82812 21.8376 3.35791 21.4546 3.02851 20.981C2.69985 20.5041 2.47714 19.9544 2.32959 19.3849C2.17666 18.8158 2.08271 18.2271 2.02636 17.6342C1.97802 17.1706 1.95727 16.7038 1.94184 16.2348C2.16049 16.3157 2.40874 16.3492 2.64145 16.3087C3.04863 16.2369 3.35517 16.0178 3.59731 15.769C3.66172 15.8438 3.72476 15.9203 3.7979 15.9907C3.91328 16.096 4.04141 16.1953 4.18833 16.2795C4.2648 16.3187 4.34463 16.3576 4.43452 16.3848C4.52105 16.4116 4.62637 16.4267 4.68741 16.4327C5.01343 16.472 5.37164 16.4478 5.68155 16.2704C5.99483 16.0897 6.17725 15.7831 6.26046 15.4913C6.34698 15.1965 6.35973 14.902 6.34698 14.6163C6.31817 14.0417 6.17462 13.491 6.00489 12.9591L5.69766 13.0399C5.84454 13.5634 5.95723 14.0987 5.97003 14.6283C5.97271 14.89 5.95391 15.1516 5.87344 15.386C5.80035 15.6208 5.6628 15.8193 5.46426 15.9273C5.26905 16.0326 5.00679 16.0508 4.75791 16.0179C4.67476 16.0058 4.63247 15.9967 4.58487 15.9787C4.53389 15.9605 4.48291 15.9334 4.43462 15.9035C4.33267 15.8405 4.23609 15.759 4.14688 15.6718C3.7853 15.3049 3.52974 14.8236 3.35669 14.3275C3.18428 13.8281 3.09438 13.3046 3.07563 12.7783C3.06289 12.5167 3.07231 12.2491 3.09443 11.9901C3.11992 11.7225 3.15547 11.4672 3.22593 11.2294C3.37016 10.7452 3.65122 10.3031 4.05703 10.0442C4.25894 9.91807 4.4857 9.84258 4.70972 9.83657C4.85396 9.83355 4.9814 9.84258 5.13233 9.85469C5.22422 10.1136 5.55494 11.0524 5.65421 11.3083L5.95806 11.2178C5.8876 10.9652 5.58306 10.0321 5.51534 9.77959C5.48716 9.66821 5.45831 9.55688 5.4295 9.44551C5.28526 8.9042 5.14776 8.36289 4.99751 7.8185C4.75132 6.91024 4.46358 6.01068 4.17578 5.11449C3.8813 4.23646 3.64185 3.34593 3.66465 2.48264C3.66733 2.05569 3.75049 1.6344 3.95508 1.3094C4.05703 1.14709 4.18853 1.00891 4.34815 0.906612C4.38706 0.879463 4.4313 0.855293 4.47022 0.834199C4.50176 0.819453 4.55606 0.795283 4.61377 0.771113C4.68418 0.744258 4.79287 0.711103 4.88545 0.695966C5.27247 0.623505 5.69512 0.720088 6.04054 0.942842C6.392 1.16521 6.67311 1.5053 6.87164 1.89001C6.97428 2.08249 7.0568 2.28708 7.12115 2.4947C7.1567 2.60271 7.18488 2.70838 7.21105 2.81331C7.22311 2.86165 7.23253 2.92468 7.24591 2.97864L7.27745 3.14734L7.54308 4.53084C7.72555 5.4515 7.91403 6.37152 8.12804 7.28612C8.24005 7.74628 8.3588 8.20341 8.49294 8.65752C8.52516 8.76889 8.55666 8.88022 8.59157 8.98857C8.52179 8.94634 8.44801 8.91045 8.37086 8.88027C8.00729 8.72666 7.56862 8.70854 7.19161 8.84707C6.80792 8.97954 6.50069 9.2623 6.32428 9.58994C6.14586 9.92368 6.09151 10.2876 6.117 10.6458C6.14249 10.9976 6.27999 11.3524 6.48795 11.6412C6.69591 11.933 6.96085 12.1765 7.2486 12.3751C7.79264 12.7511 8.39362 13.004 9.03356 13.1633L8.93093 14.6763C8.75856 14.7125 8.61095 14.7756 8.46071 14.8446C8.25612 14.9499 8.07096 15.0794 7.9046 15.2267C7.57526 15.5185 7.3257 15.8733 7.13385 16.2403C6.75284 16.9802 6.57442 17.7774 6.46842 18.5652L6.78502 18.6075C6.91651 17.8434 7.1211 17.0828 7.49806 16.4147C7.68722 16.084 7.92335 15.7801 8.21115 15.5426C8.35539 15.4222 8.51164 15.3199 8.67868 15.2448C8.83561 15.1697 9.0362 15.1153 9.17038 15.1123L9.42395 15.1153L9.41725 14.8809L9.35954 13.049L9.36896 12.947L9.24152 12.9018C8.63381 12.6824 8.03209 12.3993 7.53033 12.0294C7.02789 11.6625 6.63145 11.1752 6.60328 10.6067C6.58648 10.33 6.63482 10.0412 6.76627 9.80376C6.89708 9.56899 7.11105 9.37944 7.3673 9.29224C7.62286 9.20503 7.91066 9.21714 8.16354 9.32544C8.22726 9.34956 8.2883 9.38247 8.3487 9.4187L8.42922 9.4727L8.51842 9.54482C8.62712 9.62935 8.73239 9.71655 8.84445 9.79771C8.87062 9.81885 8.89611 9.83994 8.92429 9.85776C8.97595 9.894 9.02692 9.93286 9.07858 9.96607C9.58703 10.3239 10.1431 10.6188 10.722 10.8565C11.0353 10.9887 11.3619 11.1031 11.6591 11.2235C11.806 11.2836 11.9503 11.3526 12.0395 11.422L12.0938 11.473C12.1133 11.4971 12.0999 11.473 12.126 11.527C12.1421 11.5572 12.1676 11.6414 12.1804 11.7078C12.3017 12.2971 12.3279 12.9471 12.3944 13.5787C12.4554 14.2132 12.5064 14.8508 12.6694 15.4914L12.9826 15.4314C12.874 14.8206 12.8646 14.183 12.8263 13.5515C12.7908 12.9108 12.772 12.2823 12.6566 11.6176C12.6379 11.527 12.6244 11.458 12.5768 11.3406C12.5707 11.3198 12.5191 11.2262 12.4809 11.1873C12.4427 11.139 12.4011 11.1031 12.3595 11.0699C12.1871 10.9374 12.02 10.8687 11.8604 10.7962C11.5378 10.6638 11.2272 10.5527 10.9266 10.4233C10.6818 10.3209 10.4457 10.2063 10.2143 10.0835C10.3867 9.43184 10.4625 8.77177 10.5201 8.11137L10.7093 5.94408L10.8737 3.77674C10.9052 3.42088 10.9199 3.04256 10.9662 2.72161C11.0192 2.39221 11.1111 2.07092 11.2594 1.78249C11.4069 1.49509 11.6115 1.24187 11.8624 1.06106C12.1139 0.882295 12.4124 0.78 12.7103 0.791084C13.3167 0.798799 13.8446 1.27473 14.1008 1.87038C14.3681 2.47053 14.4312 3.16883 14.389 3.85608Z" fill="#831D5C"/>
</svg>
