<svg width="27" height="25" viewBox="0 0 27 25" fill="none" xmlns="http://www.w3.org/2000/svg">
<path d="M19 24H21.4C21.8243 24 22.2314 23.8244 22.5314 23.5119C22.8315 23.1993 23 22.7753 23 22.3333V14" stroke="#A0186A" stroke-linecap="round" stroke-linejoin="round"/>
<path d="M9 24H6C5.46957 24 4.96085 23.8244 4.58579 23.5119C4.21072 23.1993 4 22.7753 4 22.3333V14" stroke="#A0186A" stroke-linecap="round" stroke-linejoin="round"/>
<path d="M1 13L12.3859 1.49636C12.5415 1.339 12.7264 1.21418 12.9299 1.129C13.1332 1.04384 13.3513 1 13.5715 1C13.7918 1 14.0098 1.04384 14.2132 1.129C14.4167 1.21418 14.6015 1.339 14.7572 1.49636L26 12.8544" stroke="#A0186A" stroke-linecap="round" stroke-linejoin="round"/>
<path d="M13.5 13C14.8807 13 16 11.8807 16 10.5C16 9.11929 14.8807 8 13.5 8C12.1193 8 11 9.11929 11 10.5C11 11.8807 12.1193 13 13.5 13Z" stroke="#A0186A" stroke-linecap="round" stroke-linejoin="round"/>
<path d="M13.5 14C12.3065 14 11.1619 14.439 10.318 15.2203C9.47411 16.0018 9 17.0616 9 18.1667V19H10.8L11.7 24H15.3L16.2 19H18V18.1667C18 17.0616 17.5259 16.0018 16.682 15.2203C15.8381 14.439 14.6935 14 13.5 14Z" stroke="#A0186A" stroke-linecap="round" stroke-linejoin="round"/>
</svg>
