<svg width="33" height="29" viewBox="0 0 33 29" fill="none" xmlns="http://www.w3.org/2000/svg">
<mask id="path-1-inside-1_6057_1361" fill="white">
<path fill-rule="evenodd" clip-rule="evenodd" d="M29.7705 28.5121C29.7705 28.7799 29.5531 29 29.2826 29H3.16392C2.89613 29 2.67606 28.7826 2.67606 28.5121V13.7015C2.12988 13.911 1.62347 13.9137 1.19925 13.7731C0.867824 13.6618 0.589429 13.4629 0.385273 13.2031C0.181117 12.9459 0.0511992 12.6304 0.0114285 12.2857C-0.0469018 11.7475 0.114832 11.1377 0.570869 10.5676C0.594732 10.5385 0.621246 10.5119 0.650411 10.4881L15.9224 0.12914C16.0947 -0.0299432 16.3598 -0.0458514 16.5507 0.102626L31.8492 10.4404C31.8704 10.4563 31.889 10.4748 31.9075 10.4934C32.5226 11.1562 32.6764 11.8907 32.5279 12.5137C32.4537 12.8186 32.3079 13.097 32.1064 13.3224C31.9049 13.5504 31.6477 13.7254 31.3534 13.8315C30.8867 14.0012 30.3352 13.9932 29.7732 13.7281C29.7705 17.8642 29.7705 24.3786 29.7705 28.5121ZM12.2157 18.6199C12.8335 18.6199 13.332 19.121 13.332 19.7361C13.332 20.3539 12.8308 20.8523 12.2157 20.8523C11.6006 20.8523 11.0995 20.3539 11.0995 19.7361C11.0995 19.121 11.6006 18.6199 12.2157 18.6199ZM15.4186 16.9999H15.7474V17.0741L15.5352 17.2942H15.7553V17.3737H15.4V17.2942L15.6095 17.0768H15.4212L15.4186 16.9999ZM13.1782 17.6945H13.8914V17.8589L13.4327 18.3388H13.9073V18.5138H13.1305V18.3441L13.5865 17.8695H13.1782V17.6945ZM14.4614 17.4082H14.9705V17.5248L14.6444 17.8669H14.9838V17.9915H14.4296V17.8722L14.7531 17.5354H14.4614V17.4082ZM8.94923 18.6596H10.3677V22.8408H23.9799V25.1369H23.8341V26.2876H22.4156V25.1369H10.3677V26.2876H8.94923V25.1369H8.60189V22.8435H8.94923V18.6596ZM13.8808 18.9804H22.4341C23.1765 18.9804 23.7863 19.5876 23.7863 20.3326V22.4034C19.849 22.4034 14.8379 22.4034 10.9006 22.4034V21.4674C10.9006 21.3216 11.02 21.2023 11.1658 21.2023H13.8781V18.9804H13.8808ZM12.0195 9.63963H20.5596V15.3905H12.0195V9.63963ZM14.9201 11.2013C15.1667 11.2013 15.3682 11.4028 15.3682 11.6494C15.3682 11.896 15.1667 12.0975 14.9201 12.0975C14.6736 12.0975 14.472 11.896 14.472 11.6494C14.4747 11.4001 14.6736 11.2013 14.9201 11.2013ZM16.8079 13.1235L17.8154 11.5751L18.7673 13.9826H14.1009V13.683L14.4747 13.6644L14.8485 12.7497L15.1455 13.4046H15.7049L16.1901 12.1531L16.8079 13.1235ZM12.5339 10.2309H20.0505V14.7992H12.5339V10.2309ZM28.5456 27.7724V13.158C28.5456 13.1262 28.5482 13.0944 28.5535 13.0652L16.3386 4.92813L3.88774 13.0679C3.89835 13.1076 3.90365 13.1501 3.90365 13.1925V27.7724C12.1176 27.7724 20.3289 27.7724 28.5456 27.7724Z"/>
</mask>
<path fill-rule="evenodd" clip-rule="evenodd" d="M29.7705 28.5121C29.7705 28.7799 29.5531 29 29.2826 29H3.16392C2.89613 29 2.67606 28.7826 2.67606 28.5121V13.7015C2.12988 13.911 1.62347 13.9137 1.19925 13.7731C0.867824 13.6618 0.589429 13.4629 0.385273 13.2031C0.181117 12.9459 0.0511992 12.6304 0.0114285 12.2857C-0.0469018 11.7475 0.114832 11.1377 0.570869 10.5676C0.594732 10.5385 0.621246 10.5119 0.650411 10.4881L15.9224 0.12914C16.0947 -0.0299432 16.3598 -0.0458514 16.5507 0.102626L31.8492 10.4404C31.8704 10.4563 31.889 10.4748 31.9075 10.4934C32.5226 11.1562 32.6764 11.8907 32.5279 12.5137C32.4537 12.8186 32.3079 13.097 32.1064 13.3224C31.9049 13.5504 31.6477 13.7254 31.3534 13.8315C30.8867 14.0012 30.3352 13.9932 29.7732 13.7281C29.7705 17.8642 29.7705 24.3786 29.7705 28.5121ZM12.2157 18.6199C12.8335 18.6199 13.332 19.121 13.332 19.7361C13.332 20.3539 12.8308 20.8523 12.2157 20.8523C11.6006 20.8523 11.0995 20.3539 11.0995 19.7361C11.0995 19.121 11.6006 18.6199 12.2157 18.6199ZM15.4186 16.9999H15.7474V17.0741L15.5352 17.2942H15.7553V17.3737H15.4V17.2942L15.6095 17.0768H15.4212L15.4186 16.9999ZM13.1782 17.6945H13.8914V17.8589L13.4327 18.3388H13.9073V18.5138H13.1305V18.3441L13.5865 17.8695H13.1782V17.6945ZM14.4614 17.4082H14.9705V17.5248L14.6444 17.8669H14.9838V17.9915H14.4296V17.8722L14.7531 17.5354H14.4614V17.4082ZM8.94923 18.6596H10.3677V22.8408H23.9799V25.1369H23.8341V26.2876H22.4156V25.1369H10.3677V26.2876H8.94923V25.1369H8.60189V22.8435H8.94923V18.6596ZM13.8808 18.9804H22.4341C23.1765 18.9804 23.7863 19.5876 23.7863 20.3326V22.4034C19.849 22.4034 14.8379 22.4034 10.9006 22.4034V21.4674C10.9006 21.3216 11.02 21.2023 11.1658 21.2023H13.8781V18.9804H13.8808ZM12.0195 9.63963H20.5596V15.3905H12.0195V9.63963ZM14.9201 11.2013C15.1667 11.2013 15.3682 11.4028 15.3682 11.6494C15.3682 11.896 15.1667 12.0975 14.9201 12.0975C14.6736 12.0975 14.472 11.896 14.472 11.6494C14.4747 11.4001 14.6736 11.2013 14.9201 11.2013ZM16.8079 13.1235L17.8154 11.5751L18.7673 13.9826H14.1009V13.683L14.4747 13.6644L14.8485 12.7497L15.1455 13.4046H15.7049L16.1901 12.1531L16.8079 13.1235ZM12.5339 10.2309H20.0505V14.7992H12.5339V10.2309ZM28.5456 27.7724V13.158C28.5456 13.1262 28.5482 13.0944 28.5535 13.0652L16.3386 4.92813L3.88774 13.0679C3.89835 13.1076 3.90365 13.1501 3.90365 13.1925V27.7724C12.1176 27.7724 20.3289 27.7724 28.5456 27.7724Z" stroke="#831D5C" stroke-width="2" mask="url(#path-1-inside-1_6057_1361)"/>
</svg>
