<svg width="33" height="33" viewBox="0 0 33 33" fill="none" xmlns="http://www.w3.org/2000/svg">
<path d="M32.45 0H30.25C29.92 0 29.7 0.22 29.7 0.55V6.05H25.3V3.3H24.2V6.05H18.7V3.3H17.6V6.05H11V4.95C11 4.29 10.56 3.85 9.9 3.85H3.3V0.55C3.3 0.22 3.08 0 2.75 0H0.55C0.22 0 0 0.22 0 0.55V32.45C0 32.78 0.22 33 0.55 33H2.75C3.08 33 3.3 32.78 3.3 32.45V28.6H17.6V33H18.7V30.25H24.2V33H25.3V28.6H29.7V32.45C29.7 32.78 29.92 33 30.25 33H32.45C32.78 33 33 32.78 33 32.45V0.55C33 0.22 32.78 0 32.45 0ZM3.3 22H9.9V23.1H3.3V22ZM9.9 20.9H3.3V11.55H17.6V23.1H11V22C11 21.34 10.56 20.9 9.9 20.9ZM24.2 24.75H18.7V24.2H24.2V24.75ZM18.7 23.1V19.8H24.2V23.1H18.7ZM24.2 18.7H18.7V18.15H24.2V18.7ZM24.2 17.05H18.7V13.2H24.2V17.05ZM24.2 12.1H18.7V11.55H24.2V12.1ZM24.2 10.45H18.7V8.8H24.2V10.45ZM18.7 25.85H24.2V27.5H18.7V25.85ZM25.3 11.55H29.7V23.1H25.3V11.55ZM29.7 7.15V10.45H25.3V7.15H29.7ZM24.2 7.15V7.7H18.7V7.15H24.2ZM17.6 7.15V10.45H3.3V7.15H9.9H17.6ZM9.9 4.95V6.05H3.3V4.95H9.9ZM2.2 31.9H1.1V1.1H2.2V6.6V11V23.65V28.05V31.9ZM3.3 27.5V24.2H9.9H17.6V27.5H3.3ZM18.7 29.15V28.6H24.2V29.15H18.7ZM25.3 27.5V24.2H29.7V27.5H25.3ZM31.9 31.9H30.8V28.05V23.65V11V6.6V1.1H31.9V31.9Z" fill="#831D5C"/>
<path d="M5.4999 8.25H4.3999V9.35H5.4999V8.25Z" fill="#831D5C"/>
<path d="M7.69961 8.25H6.59961V9.35H7.69961V8.25Z" fill="#831D5C"/>
<path d="M28.6 8.25H27.5V9.35H28.6V8.25Z" fill="#831D5C"/>
<path d="M5.4999 25.2969H4.3999V26.3969H5.4999V25.2969Z" fill="#831D5C"/>
<path d="M7.69961 25.2969H6.59961V26.3969H7.69961V25.2969Z" fill="#831D5C"/>
<path d="M28.6 25.2969H27.5V26.3969H28.6V25.2969Z" fill="#831D5C"/>
</svg>
