<svg width="27" height="29" viewBox="0 0 27 29" fill="none" xmlns="http://www.w3.org/2000/svg">
<path d="M14.9356 19.2891C15.4147 19.2891 15.8066 19.681 15.8066 20.16V27.1278C15.8066 27.6068 15.4147 27.9987 14.9356 27.9987H6.22595C5.74692 27.9987 5.35498 27.6068 5.35498 27.1278V20.16C5.35498 19.681 5.74692 19.2891 6.22595 19.2891" stroke="#831D5C"/>
<path d="M10.5806 20.1613C15.8719 20.1613 20.1613 15.8719 20.1613 10.5806C20.1613 5.2894 15.8719 1 10.5806 1C5.2894 1 1 5.2894 1 10.5806C1 15.8719 5.2894 20.1613 10.5806 20.1613Z" stroke="#831D5C"/>
<path d="M2.74194 10.5809C2.74194 6.26961 6.26936 2.74219 10.5807 2.74219" stroke="#831D5C"/>
<path d="M10.5806 12.3237C11.5426 12.3237 12.3225 11.5438 12.3225 10.5818C12.3225 9.61973 11.5426 8.83984 10.5806 8.83984C9.61851 8.83984 8.83862 9.61973 8.83862 10.5818C8.83862 11.5438 9.61851 12.3237 10.5806 12.3237Z" stroke="#831D5C"/>
<path d="M7.09668 26.2578H14.0644" stroke="#831D5C"/>
<path d="M7.09668 24.082H14.0644" stroke="#831D5C"/>
<path d="M7.09668 21.9023H14.0644" stroke="#831D5C"/>
<path d="M24.0369 14.0658C25.2155 14.0658 26.1708 13.0909 26.1708 11.8884C26.1708 10.6858 25.2155 9.71094 24.0369 9.71094C22.8584 9.71094 21.9031 10.6858 21.9031 11.8884C21.9031 13.0909 22.8584 14.0658 24.0369 14.0658Z" stroke="#831D5C"/>
<path d="M15.5452 24.518C15.5452 24.518 24.1242 24.518 24.1242 14.0664" stroke="#831D5C"/>
</svg>
