<svg width="4" height="19" viewBox="0 0 4 19" fill="none" xmlns="http://www.w3.org/2000/svg">
<path d="M1.91424 19.0004C2.70717 19.0004 3.34996 18.3576 3.34996 17.5646C3.34996 16.7717 2.70717 16.1289 1.91424 16.1289C1.12131 16.1289 0.478516 16.7717 0.478516 17.5646C0.478516 18.3576 1.12131 19.0004 1.91424 19.0004Z" fill="#831D5C"/>
<path d="M1.81858 14.2137H2.01001C2.2651 14.2031 2.50767 14.1002 2.69255 13.9241C2.87743 13.748 2.99203 13.5108 3.01502 13.2565L3.8286 1.9143C3.8286 1.40659 3.62691 0.919685 3.26791 0.560685C2.90891 0.201684 2.422 0 1.9143 0C1.40659 0 0.919686 0.201684 0.560685 0.560685C0.201685 0.919685 0 1.40659 0 1.9143L0.813577 13.2565C0.836568 13.5108 0.951169 13.748 1.13605 13.9241C1.32093 14.1002 1.56349 14.2031 1.81858 14.2137Z" fill="#831D5C"/>
</svg>
