<svg width="23" height="22" viewBox="0 0 23 22" fill="none" xmlns="http://www.w3.org/2000/svg">
<path d="M1 21.125H22" stroke="#831D5C" stroke-linecap="round" stroke-linejoin="round"/>
<path d="M8.875 21.125V6.25L1.875 7.71895V21.125" stroke="#831D5C" stroke-linecap="round" stroke-linejoin="round"/>
<path d="M21.125 21.125V6.81985L8.875 1.875V21.125" stroke="#831D5C" stroke-linecap="round" stroke-linejoin="round"/>
<path d="M17.6163 21.125L17.625 14.7413C17.625 14.3458 17.4867 13.9664 17.2405 13.6867C16.9944 13.4071 16.6606 13.25 16.3125 13.25H13.6875C13.3394 13.25 13.0055 13.4071 12.7594 13.6867C12.5132 13.9664 12.375 14.3458 12.375 14.7413V21.125" stroke="#831D5C" stroke-linecap="round" stroke-linejoin="round"/>
<path d="M1 8L8.875 6.25" stroke="#831D5C" stroke-linecap="round" stroke-linejoin="round"/>
<path d="M8 1L22 7.125" stroke="#831D5C" stroke-linecap="round" stroke-linejoin="round"/>
<path d="M21.125 6.25V1.875H17.625V5.026" stroke="#831D5C" stroke-linecap="round" stroke-linejoin="round"/>
<path d="M12.375 7.125H14.125" stroke="#831D5C" stroke-linecap="round" stroke-linejoin="round"/>
</svg>
