<svg width="26" height="26" viewBox="0 0 26 26" fill="none" xmlns="http://www.w3.org/2000/svg">
<path d="M1 15.4013V17.8015C1 21.1958 1 22.8929 2.05448 23.9474C3.10895 25.0019 4.8061 25.0019 8.20042 25.0019H17.801C21.1952 25.0019 22.8924 25.0019 23.9469 23.9474C25.0014 22.8929 25.0014 21.1958 25.0014 17.8015V13.0012C25.0014 9.60689 25.0014 7.90974 23.9469 6.85526C22.8924 5.80078 21.1952 5.80078 17.801 5.80078H8.20042C4.8061 5.80078 3.10895 5.80078 2.05448 6.85526C1.28487 7.62486 1.07696 8.73681 1.02079 10.6011" stroke="#1C274C" stroke-linecap="round"/>
<path d="M9.64062 1L13.2408 5.32025L16.841 1" stroke="#1C274C" stroke-linecap="round"/>
<path d="M17.801 5.80078V10.6011M17.801 25.0019V15.4013" stroke="#1C274C" stroke-linecap="round"/>
<path d="M22.6013 17.5634C22.6013 16.9006 22.064 16.3633 21.4012 16.3633C20.7384 16.3633 20.2012 16.9006 20.2012 17.5634C20.2012 18.2261 20.7384 18.7634 21.4012 18.7634C22.064 18.7634 22.6013 18.2261 22.6013 17.5634Z" fill="#831D5C"/>
<path d="M22.6013 13.2391C22.6013 12.5763 22.064 12.0391 21.4012 12.0391C20.7384 12.0391 20.2012 12.5763 20.2012 13.2391C20.2012 13.9019 20.7384 14.4392 21.4012 14.4392C22.064 14.4392 22.6013 13.9019 22.6013 13.2391Z" fill="#831D5C"/>
</svg>
