<svg width="25" height="25" viewBox="0 0 25 25" fill="none" xmlns="http://www.w3.org/2000/svg">
<path d="M7.21408 6.36485C6.98517 4.58623 5.46237 3.20703 3.62247 3.20703C1.62505 3.20703 0 4.83208 0 6.8295V23.5112C0 23.793 0.228419 24.0214 0.510206 24.0214H7.55104C7.83278 24.0214 8.06125 23.793 8.06125 23.5112C8.06125 22.3983 7.20085 21.4835 6.1132 21.4029C5.69181 20.6641 4.89474 20.188 4.03058 20.188C3.16646 20.188 2.36939 20.664 1.9481 21.4029C1.6107 21.4279 1.29527 21.5333 1.02046 21.6999V6.8295C1.02046 5.39473 2.18775 4.22744 3.62252 4.22744C4.90397 4.22744 5.97125 5.15884 6.18493 6.37999C5.0755 6.63111 4.24435 7.62428 4.24435 8.80856V10.1442C4.24435 10.4259 4.47281 10.6544 4.75455 10.6544H8.71501C8.99675 10.6544 9.22522 10.4259 9.22522 10.1442V8.80856C9.22517 7.59928 8.35866 6.58902 7.21408 6.36485ZM2.1042 22.4175C2.13995 22.4175 2.17803 22.4195 2.21744 22.4234C2.44703 22.4461 2.66329 22.3127 2.74537 22.0972C2.94761 21.5655 3.46417 21.2083 4.03062 21.2083C4.59723 21.2083 5.11373 21.5655 5.31593 22.0971C5.39786 22.3127 5.61432 22.4461 5.84391 22.4234C5.88327 22.4194 5.92125 22.4175 5.95695 22.4175C6.37213 22.4175 6.73356 22.6542 6.91559 23.001H1.14571C1.32769 22.6543 1.68902 22.4175 2.1042 22.4175ZM8.20476 9.63395H5.26471V8.80856C5.26471 8.00323 5.91564 7.34737 6.71901 7.33888C6.72433 7.33902 6.72946 7.33971 6.73478 7.33971C6.7401 7.33971 6.74523 7.33907 6.75055 7.33888C7.55383 7.34747 8.2048 8.00328 8.2048 8.80856L8.20476 9.63395Z" fill="#831D5C"/>
<path d="M18.0122 21.7852C17.7304 21.7852 17.502 22.0136 17.502 22.2954V22.3046C17.502 22.5864 17.7304 22.8148 18.0122 22.8148C18.2939 22.8148 18.5224 22.5864 18.5224 22.3046V22.2954C18.5224 22.0136 18.2939 21.7852 18.0122 21.7852Z" fill="#831D5C"/>
<path d="M24.7947 14.578L16.9073 8.68734C16.7263 8.55214 16.4778 8.55214 16.2968 8.68734L8.4093 14.578C8.23318 14.7095 8.16111 14.9391 8.23039 15.1476C8.29968 15.3563 8.49485 15.497 8.71458 15.497H9.48948V23.5072C9.48948 23.7889 9.71795 24.0174 9.99969 24.0174H23.265C23.5467 24.0174 23.7752 23.7889 23.7752 23.5072V15.497H24.4895C24.7093 15.497 24.9044 15.3563 24.9737 15.1477C25.043 14.9391 24.9709 14.7096 24.7947 14.578ZM22.7547 22.997H15.4588V19.3402C15.4588 18.777 15.917 18.3188 16.4802 18.3188C17.0435 18.3188 17.5017 18.7769 17.5017 19.3402V20.6866C17.5017 20.9684 17.7301 21.1968 18.0119 21.1968C18.2936 21.1968 18.5221 20.9684 18.5221 20.6866V19.3402C18.5221 18.2144 17.6061 17.2983 16.4802 17.2983C15.3543 17.2983 14.4384 18.2144 14.4384 19.3402V22.997H10.5098V15.497H22.7547V22.997ZM10.2504 14.4767L16.602 9.73295L22.9536 14.4767H10.2504Z" fill="#831D5C"/>
<path d="M23.9378 3.21069C23.8139 3.07349 23.6254 3.01406 23.445 3.05527C23.3088 3.08648 23.1702 3.10234 23.0329 3.10234C22.0201 3.10234 21.1961 2.27842 21.1961 1.26562C21.1961 1.06435 21.2291 0.865425 21.294 0.674409C21.3535 0.499262 21.3136 0.305659 21.1897 0.168354C21.0657 0.0310485 20.8771 -0.0283754 20.697 0.0128844C19.3916 0.312006 18.48 1.45698 18.48 2.79712C18.4799 4.37261 19.7616 5.6543 21.3371 5.6543C22.5611 5.6543 23.6482 4.87569 24.0421 3.71675C24.1017 3.5416 24.0618 3.348 23.9378 3.21069ZM21.3371 4.63394C20.3243 4.63394 19.5004 3.81001 19.5004 2.79722C19.5004 2.22529 19.7586 1.70864 20.1776 1.36972C20.2277 2.76392 21.2816 3.90664 22.6366 4.09546C22.2997 4.43257 21.8361 4.63394 21.3371 4.63394Z" fill="#831D5C"/>
<path d="M13.2929 17.6289H11.4963C11.2146 17.6289 10.9861 17.8574 10.9861 18.1391V20.0116C10.9861 20.2933 11.2146 20.5218 11.4963 20.5218C11.778 20.5218 12.0065 20.2933 12.0065 20.0116V18.6493H12.7827V18.8578C12.7827 19.1395 13.0112 19.368 13.2929 19.368C13.5747 19.368 13.8031 19.1395 13.8031 18.8578V18.1391C13.8031 17.8574 13.5746 17.6289 13.2929 17.6289Z" fill="#831D5C"/>
<path d="M13.2932 19.4883C13.0114 19.4883 12.783 19.7167 12.783 19.9985V20.008C12.783 20.2897 13.0114 20.5182 13.2932 20.5182C13.5749 20.5182 13.8034 20.2897 13.8034 20.008V19.9985C13.8034 19.7167 13.5749 19.4883 13.2932 19.4883Z" fill="#831D5C"/>
<path d="M21.739 17.6289H19.9423C19.6606 17.6289 19.4321 17.8574 19.4321 18.1391V20.0116C19.4321 20.2933 19.6606 20.5218 19.9423 20.5218C20.2241 20.5218 20.4525 20.2933 20.4525 20.0116V18.6493H21.2288V18.8578C21.2288 19.1395 21.4572 19.368 21.739 19.368C22.0207 19.368 22.2492 19.1395 22.2492 18.8578V18.1391C22.2492 17.8574 22.0207 17.6289 21.739 17.6289Z" fill="#831D5C"/>
<path d="M21.7392 19.4883C21.4575 19.4883 21.229 19.7167 21.229 19.9985V20.008C21.229 20.2897 21.4575 20.5182 21.7392 20.5182C22.0209 20.5182 22.2494 20.2897 22.2494 20.008V19.9985C22.2494 19.7167 22.0209 19.4883 21.7392 19.4883Z" fill="#831D5C"/>
</svg>
