<svg width="19" height="21" viewBox="0 0 19 21" fill="none" xmlns="http://www.w3.org/2000/svg">
<path d="M3.9082 20.0006V19.0312" stroke="#1C274C" stroke-linecap="round"/>
<path d="M15.1528 20.0006V19.0312" stroke="#1C274C" stroke-linecap="round"/>
<path d="M1 8.59167C1 5.01292 1 3.22355 2.11044 2.11177C3.2209 1 5.00812 1 8.5826 1H10.4782C14.0527 1 15.84 1 16.9504 2.11177C18.0608 3.22355 18.0608 5.01292 18.0608 8.59167V11.4385C18.0608 15.0173 18.0608 16.8067 16.9504 17.9184C15.84 19.0302 14.0527 19.0302 10.4782 19.0302H8.5826C5.00812 19.0302 3.2209 19.0302 2.11044 17.9184C1.10282 16.9096 1.00952 15.3428 1.00088 12.3875" stroke="#1C274C" stroke-linecap="round"/>
<path d="M1 7.58984H9.53042M18.0608 7.58984H13.3217" stroke="#1C274C" stroke-linecap="round"/>
<path d="M12.4385 13.3112C12.4385 14.8638 11.1366 16.1223 9.53041 16.1223C7.92427 16.1223 6.62231 14.8638 6.62231 13.3112C6.62231 11.7586 7.92427 10.5 9.53041 10.5C11.1366 10.5 12.4385 11.7586 12.4385 13.3112Z" stroke="#1C274C"/>
<path d="M4.2959 4.29688H7.204" stroke="#1C274C" stroke-linecap="round"/>
<path d="M12.8262 4.29749C12.8262 4.83285 12.3922 5.26686 11.8568 5.26686C11.3214 5.26686 10.8875 4.83285 10.8875 4.29749C10.8875 3.76213 11.3214 3.32812 11.8568 3.32812C12.3922 3.32812 12.8262 3.76213 12.8262 4.29749Z" fill="#1C274C"/>
<path d="M15.7344 4.29749C15.7344 4.83285 15.3004 5.26686 14.765 5.26686C14.2296 5.26686 13.7957 4.83285 13.7957 4.29749C13.7957 3.76213 14.2296 3.32812 14.765 3.32812C15.3004 3.32812 15.7344 3.76213 15.7344 4.29749Z" fill="#1C274C"/>
</svg>
