<svg width="28" height="26" viewBox="0 0 28 26" fill="none" xmlns="http://www.w3.org/2000/svg">
<path d="M8 16C8 16 9 12 14 12C19 12 20 16 20 16" stroke="#831D5C" stroke-linecap="round" stroke-linejoin="round"/>
<path d="M5 12C5 12 6.49999 7 14 7C21.5001 7 23 12 23 12" stroke="#831D5C" stroke-linecap="round" stroke-linejoin="round"/>
<path d="M1 8C1 8 3.16667 1 14 1C24.8333 1 27 8 27 8" stroke="#831D5C" stroke-linecap="round" stroke-linejoin="round"/>
<path d="M14 25C16.2091 25 18 23.433 18 21.5C18 19.567 16.2091 18 14 18C11.7909 18 10 19.567 10 21.5C10 23.433 11.7909 25 14 25Z" stroke="#831D5C" stroke-linejoin="round"/>
</svg>
